<?xml version="1.0" encoding="utf-8"?>
<!-- Generator: Adobe Illustrator 16.0.0, SVG Export Plug-In . SVG Version: 6.00 Build 0)  -->
<!DOCTYPE svg PUBLIC "-//W3C//DTD SVG 1.1 Tiny//EN" "http://www.w3.org/Graphics/SVG/1.1/DTD/svg11-tiny.dtd">
<svg version="1.1" baseProfile="tiny" id="Layer_1" xmlns="http://www.w3.org/2000/svg" xmlns:xlink="http://www.w3.org/1999/xlink"
	 x="0px" y="0px" width="120px" height="120px" viewBox="0 0 120 120" overflow="scroll" xml:space="preserve">
<g>
	<path fill="#DD0228" d="M39.991,116.569V3.431C16.695,11.671,0,33.881,0,60S16.695,108.328,39.991,116.569z"/>
	<path fill="#024381" d="M79.995,3.426C73.739,1.215,67.013,0,60,0c-7.018,0-13.749,1.216-20.009,3.431v113.139
		C46.251,118.783,52.982,120,60,120c7.013,0,13.739-1.215,19.995-3.426V3.426z"/>
	<path fill="#01798A" d="M79.995,3.426v113.148C103.299,108.337,120,86.124,120,60S103.299,11.663,79.995,3.426z"/>
</g>
<g id="Union_Pay">
	<path fill="#FFFFFF" d="M49.73,65.023h0.508c0.465,0,0.777-0.154,0.916-0.467l1.314-1.966h3.525l-0.738,1.292h4.219l-0.535,1.98
		h-5.021c-0.576,0.869-1.287,1.277-2.143,1.229h-2.617L49.73,65.023 M49.156,67.862h9.236l-0.588,2.151h-3.713l-0.566,2.077h3.617
		l-0.588,2.15h-3.613l-0.844,3.067c-0.207,0.514,0.063,0.743,0.814,0.693h2.941L55.311,80h-5.656c-1.074,0-1.439-0.614-1.104-1.845
		l1.074-3.914h-2.309l0.582-2.15h2.314l0.564-2.077h-2.219L49.156,67.862L49.156,67.862z M63.9,62.579l-0.145,1.261
		c0,0,1.742-1.311,3.326-1.311h5.85l-2.236,8.099c-0.186,0.925-0.982,1.387-2.383,1.387h-6.627l-1.557,5.684
		c-0.09,0.306,0.035,0.461,0.371,0.461h1.303l-0.482,1.766h-3.313c-1.273,0-1.803-0.385-1.588-1.154l4.389-16.192L63.9,62.579
		L63.9,62.579z M68.852,64.869h-5.219l-0.623,2.183c0,0,0.867-0.625,2.32-0.65c1.445-0.021,3.105,0,3.105,0L68.852,64.869z
		 M66.959,69.937c0.389,0.052,0.611-0.1,0.633-0.462l0.318-1.152h-5.23l-0.438,1.612L66.959,69.937L66.959,69.937z M63.434,72.552
		h3.012l-0.053,1.304h0.803c0.406,0,0.609-0.129,0.609-0.387l0.236-0.842h2.506l-0.328,1.229c-0.287,1.026-1.043,1.561-2.254,1.613
		h-1.605l-0.016,2.228c-0.027,0.357,0.299,0.542,0.967,0.542h1.508l-0.488,1.763h-3.621c-1.014,0.046-1.512-0.437-1.494-1.458
		L63.434,72.552 M26.926,51.795c-0.414,1.999-1.359,3.537-2.83,4.629c-1.457,1.079-3.336,1.614-5.629,1.614
		c-2.168,0-3.754-0.553-4.766-1.652c-0.701-0.784-1.049-1.782-1.049-2.983c0-0.501,0.057-1.037,0.176-1.609l2.449-11.815h3.703
		l-2.414,11.679c-0.064,0.294-0.102,0.596-0.102,0.896c-0.004,0.597,0.15,1.089,0.445,1.471c0.439,0.566,1.15,0.85,2.143,0.85
		c1.141,0,2.074-0.279,2.805-0.841c0.73-0.557,1.203-1.347,1.41-2.376l2.428-11.679h3.686L26.926,51.795 M42.459,47.144h2.902
		L43.09,57.691h-2.896L42.459,47.144 M43.373,43.304h2.928l-0.549,2.559h-2.928L43.373,43.304 M47.922,56.887
		c-0.756-0.727-1.137-1.699-1.146-2.942c0-0.212,0.014-0.454,0.045-0.717c0.029-0.27,0.063-0.527,0.117-0.77
		c0.338-1.713,1.074-3.074,2.203-4.076c1.123-1.007,2.479-1.513,4.066-1.513c1.301,0,2.34,0.365,3.09,1.092
		c0.758,0.731,1.139,1.721,1.139,2.976c0,0.215-0.02,0.464-0.049,0.731c-0.029,0.267-0.07,0.526-0.117,0.791
		c-0.334,1.686-1.066,3.03-2.193,4.014c-1.127,0.992-2.48,1.487-4.064,1.487C49.713,57.962,48.684,57.604,47.922,56.887
		 M53.445,54.799c0.514-0.555,0.881-1.393,1.102-2.512c0.031-0.177,0.063-0.355,0.084-0.538c0.018-0.179,0.031-0.347,0.031-0.5
		c0-0.652-0.168-1.156-0.504-1.514c-0.33-0.359-0.807-0.537-1.41-0.537c-0.805,0-1.453,0.283-1.969,0.848
		c-0.514,0.565-0.885,1.419-1.113,2.557c-0.027,0.173-0.053,0.348-0.08,0.521c-0.018,0.177-0.027,0.337-0.021,0.485
		c0,0.648,0.164,1.144,0.5,1.497c0.33,0.354,0.801,0.527,1.414,0.527C52.287,55.635,52.938,55.353,53.445,54.799"/>
	<path fill="#FFFFFF" d="M76.244,65.112l0.697-2.461h3.537l-0.152,0.904c0,0,1.809-0.904,3.113-0.904h4.367l-0.693,2.461h-0.688
		l-3.299,11.603h0.689l-0.654,2.305h-0.684l-0.287,0.996h-3.424l0.287-0.996h-6.746l0.66-2.305h0.672l3.299-11.603H76.244
		 M80.057,65.112l-0.902,3.138c0,0,1.545-0.587,2.867-0.755c0.297-1.098,0.682-2.383,0.682-2.383H80.057L80.057,65.112z
		 M78.738,69.724l-0.906,3.292c0,0,1.707-0.84,2.879-0.913c0.342-1.27,0.682-2.377,0.682-2.377L78.738,69.724L78.738,69.724z
		 M79.402,76.714l0.676-2.388h-2.641l-0.68,2.388H79.402z M87.945,62.501h3.326l0.143,1.226c-0.021,0.313,0.158,0.459,0.563,0.459
		h0.586l-0.602,2.076h-2.438c-0.928,0.048-1.406-0.308-1.457-1.078L87.945,62.501z M86.973,66.957H97.73l-0.633,2.228h-3.422
		l-0.584,2.074h3.422l-0.637,2.229h-3.813l-0.861,1.306h1.869l0.428,2.612c0.051,0.26,0.283,0.387,0.682,0.387h0.574l-0.609,2.149
		h-2.053c-1.064,0.053-1.613-0.303-1.654-1.072l-0.498-2.387l-1.693,2.539c-0.402,0.717-1.02,1.048-1.852,0.996h-3.133l0.611-2.151
		h0.982c0.396,0,0.732-0.179,1.033-0.536l2.662-3.84h-3.428l0.637-2.229h3.711l0.594-2.074h-3.715L86.973,66.957 M30.328,47.142
		h2.613l-0.299,1.523l0.371-0.435c0.85-0.91,1.879-1.355,3.092-1.355c1.105,0,1.896,0.318,2.393,0.963
		c0.498,0.642,0.629,1.529,0.396,2.671l-1.443,7.188h-2.686l1.299-6.515c0.135-0.672,0.092-1.174-0.111-1.496
		c-0.207-0.324-0.596-0.483-1.156-0.483c-0.691,0-1.273,0.217-1.748,0.645c-0.473,0.431-0.791,1.031-0.945,1.789l-1.197,6.062
		h-2.691L30.328,47.142 M60.303,47.142h2.619l-0.303,1.523l0.377-0.435c0.85-0.91,1.879-1.355,3.092-1.355
		c1.094,0,1.893,0.318,2.387,0.963c0.492,0.642,0.629,1.529,0.391,2.671l-1.438,7.188h-2.689l1.299-6.515
		c0.141-0.672,0.098-1.174-0.109-1.496c-0.209-0.324-0.594-0.483-1.15-0.483c-0.697,0-1.277,0.217-1.756,0.645
		c-0.473,0.431-0.791,1.031-0.938,1.789l-1.205,6.062h-2.689L60.303,47.142 M73.234,40.602h7.594c1.461,0,2.59,0.331,3.365,0.983
		c0.773,0.658,1.158,1.603,1.158,2.827v0.039c0,0.236-0.014,0.498-0.035,0.783c-0.039,0.293-0.09,0.581-0.146,0.868
		c-0.328,1.627-1.111,2.934-2.311,3.926c-1.207,0.985-2.631,1.486-4.27,1.486h-4.07l-1.266,6.179h-3.531L73.234,40.602
		 M75.131,48.543h3.377c0.881,0,1.572-0.209,2.092-0.611c0.504-0.408,0.836-1.037,1.021-1.879c0.029-0.157,0.045-0.296,0.072-0.426
		c0.016-0.123,0.029-0.244,0.029-0.365c0-0.609-0.219-1.043-0.646-1.322c-0.43-0.276-1.105-0.415-2.049-0.415h-2.865L75.131,48.543
		 M101.135,59.732c-1.111,2.37-2.176,3.751-2.797,4.396c-0.627,0.636-1.861,2.114-4.846,2.002l0.258-1.811
		c2.512-0.772,3.863-4.254,4.639-5.794L97.467,47.17l1.938-0.027h1.629l0.172,7.123l3.063-7.123h3.08L101.135,59.732 M92.504,48.004
		l-1.225,0.844c-1.279-1.005-2.455-1.623-4.715-0.577c-3.072,1.426-5.646,12.369,2.822,8.768l0.484,0.568l3.334,0.091l2.188-9.943
		L92.504,48.004 M90.607,53.438c-0.535,1.581-1.729,2.625-2.668,2.326c-0.932-0.292-1.273-1.813-0.729-3.396
		c0.527-1.581,1.738-2.625,2.666-2.325C90.814,50.33,91.156,51.857,90.607,53.438"/>
</g>
</svg>
