<?xml version="1.0" encoding="utf-8"?>
<!-- Generator: Adobe Illustrator 16.0.0, SVG Export Plug-In . SVG Version: 6.00 Build 0)  -->
<!DOCTYPE svg PUBLIC "-//W3C//DTD SVG 1.1 Tiny//EN" "http://www.w3.org/Graphics/SVG/1.1/DTD/svg11-tiny.dtd">
<svg version="1.1" baseProfile="tiny" id="Layer_1" xmlns="http://www.w3.org/2000/svg" xmlns:xlink="http://www.w3.org/1999/xlink"
	 x="0px" y="0px" width="120px" height="120px" viewBox="0 0 120 120" overflow="scroll" xml:space="preserve">
<circle fill="#199AD6" cx="60" cy="60" r="60"/>
<g>
	<path fill="#FFFFFF" d="M110.539,92.173L78.541,79.819c0,0,6.287-11.917,8.204-25.334H65.72V45.86h25.396v-5.694H65.72V27.218
		H53.382v12.948H29.724v5.694h23.658v8.625H34.575v4.613h38.937c-0.479,2.646-1.998,10.053-5.035,16.893
		c0,0-9.643-4.195-18.688-5.988c-9.044-1.8-17.549-1.8-24.497,3.051c-6.947,4.853-9.934,13.563-6.229,22.88
		c3.605,9.075,12.099,14.616,26.174,12.88c14.078-1.736,24.858-15.033,27.734-18.388l36.817,20.356
		c0.48-1.49,0.751-3.082,0.751-4.731V92.173z M63.819,85.329c0,0-4.21,6.292-14.032,12.46c-9.823,6.169-18.27,2.694-21.203,1.437
		c-2.937-1.254-8.925-6.827-6.051-15.093c2.875-8.266,12.759-8.869,20.543-7.967c7.785,0.898,20.74,8.971,20.74,8.971L63.819,85.329
		L63.819,85.329z"/>
</g>
</svg>
