<?xml version="1.0" encoding="utf-8"?>
<!-- Generator: Adobe Illustrator 16.0.0, SVG Export Plug-In . SVG Version: 6.00 Build 0)  -->
<!DOCTYPE svg PUBLIC "-//W3C//DTD SVG 1.1//EN" "http://www.w3.org/Graphics/SVG/1.1/DTD/svg11.dtd">
<svg version="1.1" id="Layer_1" xmlns="http://www.w3.org/2000/svg" xmlns:xlink="http://www.w3.org/1999/xlink" x="0px" y="0px"
	 width="120px" height="120px" viewBox="0 0 120 120" enable-background="new 0 0 120 120" xml:space="preserve">
<g>
	<g>
		<g>
			<circle fill="#F9A139" cx="60" cy="60" r="60"/>
			<path opacity="0.2" fill="#393A39" enable-background="new    " d="M109.412,48.337c6.441,27.287-10.457,54.632-37.748,61.076
				c-27.288,6.441-54.634-10.459-61.075-37.75C4.148,44.375,21.047,17.03,48.336,10.589C75.625,4.148,102.968,21.047,109.412,48.337
				z"/>
			<path opacity="0.1" fill="#FFFFFF" enable-background="new    " d="M71.592,109.446C44.306,115.892,16.96,98.99,10.518,71.699
				c-0.872-3.7-1.303-7.4-1.35-11.052c-0.099,4.246,0.331,8.571,1.35,12.898c6.444,27.291,33.788,44.19,61.074,37.748
				c23.591-5.566,39.402-26.754,39.101-50.021C110.158,83.806,94.557,104.025,71.592,109.446z"/>
			<path opacity="0.2" fill="#393A39" enable-background="new    " d="M48.335,14.282c27.288-6.441,54.632,10.458,61.077,37.746
				c0.773,3.277,1.201,6.553,1.323,9.796c0.155-4.436-0.256-8.963-1.323-13.487c-6.444-27.29-33.787-44.188-61.077-37.748
				C24.323,16.258,8.364,38.111,9.263,61.87C10.052,39.576,25.573,19.656,48.335,14.282z"/>
		</g>
		<path fill="#FFFFFF" d="M83.591,61.15c-0.978-2.725-2.811-4.605-5.57-5.521c-1.265-0.403-2.588-0.591-3.983-0.867
			c0.128-0.128,0.203-0.247,0.294-0.315c5.502-4.438,2.98-13.828-2.179-16.147c-2.101-0.953-4.294-1.367-6.514-1.42
			c-1.602-0.025-3.177,0.046-4.803,0.126c-0.577-2.757-1.316-6.561-1.953-9.616l-5.763,1.201c0.577,3.015,1.347,6.708,1.859,9.426
			c-1.625,0.34-3.101,0.648-4.629,0.966c-0.563-2.711-1.284-6.414-1.909-9.419l-5.713,1.19c0.586,3.064,1.376,6.856,1.891,9.575
			c-3.949,0.771-7.744,1.561-11.694,2.331c0.441,2.12,0.801,4.1,1.232,6.17c0.837-0.177,1.576-0.329,2.278-0.425
			c0.737-0.153,1.475-0.307,2.175-0.402c2.051-0.273,3.322,0.647,3.732,2.615c1.614,8.25,3.237,16.544,4.902,24.78
			c0.378,1.822-0.267,2.677-2.04,3.046c-1.281,0.266-2.56,0.531-3.839,0.799c0.085,2.396,0.154,4.697,0.241,7.096
			c3.902-0.761,7.753-1.516,11.705-2.284c0.617,2.954,1.347,6.708,1.994,9.811l5.762-1.198c-0.596-3.113-1.355-6.76-1.91-9.676
			c1.635-0.29,3.123-0.549,4.659-0.816c0.616,2.954,1.316,6.56,1.939,9.565l5.765-1.198c-0.598-3.111-1.356-6.759-1.901-9.625
			c0.188-0.091,0.335-0.124,0.473-0.203c2.665-1.017,5.422-1.85,7.948-3.043c3.313-1.613,5.651-4.21,6.412-7.963
			C84.929,66.834,84.589,63.975,83.591,61.15z M51.863,45.758c3.595-0.748,7.033-1.771,10.59-0.968
			c2.363,0.484,3.813,2.032,4.107,4.181c0.325,2.295-0.618,4.188-2.778,5.409c-2.938,1.688-6.249,2.328-9.678,2.887
			C53.374,53.515,52.645,49.76,51.863,45.758z M70.411,71.912c-2.903,2.092-6.255,2.791-9.642,3.549
			c-0.937,0.194-1.88,0.339-2.917,0.555c-0.844-4.294-1.666-8.493-2.508-12.789c4.384-0.913,8.646-2.159,13.115-1.187
			c2.312,0.494,3.883,1.864,4.387,4.278C73.299,68.742,72.336,70.535,70.411,71.912z"/>
	</g>
</g>
</svg>
