<?xml version="1.0" encoding="utf-8"?>
<!-- Generator: Adobe Illustrator 16.0.0, SVG Export Plug-In . SVG Version: 6.00 Build 0)  -->
<!DOCTYPE svg PUBLIC "-//W3C//DTD SVG 1.1//EN" "http://www.w3.org/Graphics/SVG/1.1/DTD/svg11.dtd">
<svg version="1.1" id="Layer_1" xmlns="http://www.w3.org/2000/svg" xmlns:xlink="http://www.w3.org/1999/xlink" x="0px" y="0px"
	 width="120px" height="120px" viewBox="0 0 120 120" enable-background="new 0 0 120 120" xml:space="preserve">
<g>
	<g>
		<g>
			<circle fill="#78C14E" cx="60" cy="60" r="60"/>
			<path opacity="0.2" fill="#393A39" enable-background="new    " d="M109.412,48.337c6.441,27.287-10.457,54.632-37.748,61.076
				c-27.288,6.441-54.634-10.459-61.075-37.75C4.148,44.375,21.047,17.03,48.336,10.589C75.625,4.148,102.968,21.047,109.412,48.337
				z"/>
			<path opacity="0.1" fill="#FFFFFF" enable-background="new    " d="M71.592,109.446C44.306,115.892,16.96,98.99,10.518,71.699
				c-0.872-3.7-1.303-7.4-1.35-11.052c-0.099,4.246,0.331,8.571,1.35,12.898c6.444,27.291,33.788,44.19,61.074,37.748
				c23.591-5.566,39.402-26.754,39.101-50.021C110.158,83.806,94.557,104.025,71.592,109.446z"/>
			<path opacity="0.2" fill="#393A39" enable-background="new    " d="M48.335,14.282c27.288-6.441,54.632,10.458,61.077,37.746
				c0.773,3.277,1.201,6.553,1.323,9.796c0.155-4.436-0.256-8.963-1.323-13.487c-6.444-27.29-33.787-44.188-61.077-37.748
				C24.323,16.258,8.364,38.111,9.263,61.87C10.052,39.576,25.573,19.656,48.335,14.282z"/>
		</g>
		<path fill="#FFFFFF" d="M80.008,73.479c0.516-2.85-0.132-5.395-2.064-7.566c-0.894-0.982-1.945-1.807-3.016-2.743
			c0.175-0.048,0.299-0.112,0.412-0.126c6.983-1.092,9.495-10.486,6.187-15.074c-1.343-1.875-3.035-3.33-4.931-4.486
			c-1.375-0.822-2.774-1.549-4.223-2.292c0.879-2.676,2.14-6.34,3.116-9.305l-5.592-1.841c-1.007,2.898-2.188,6.482-3.103,9.092
			c-1.576-0.518-3.009-0.988-4.492-1.477c0.868-2.63,2.096-6.197,3.057-9.112l-5.542-1.825c-1.025,2.946-2.236,6.626-3.15,9.237
			c-3.806-1.307-7.487-2.521-11.293-3.828c-0.677,2.057-1.355,3.95-2.018,5.959c0.814,0.266,1.529,0.503,2.185,0.771
			c0.715,0.235,1.431,0.472,2.085,0.738c1.913,0.789,2.553,2.222,1.924,4.131c-2.727,7.951-5.469,15.946-8.145,23.911
			c-0.583,1.768-1.569,2.185-3.29,1.617c-1.242-0.41-2.482-0.82-3.724-1.228c-1.124,2.117-2.215,4.145-3.339,6.266
			c3.76,1.292,7.472,2.563,11.278,3.874c-0.943,2.866-2.188,6.482-3.179,9.493l5.589,1.843c1.041-2.994,2.206-6.531,3.184-9.334
			c1.561,0.566,2.979,1.086,4.443,1.622c-0.943,2.866-2.14,6.339-3.103,9.254l5.591,1.845c1.038-2.994,2.205-6.531,3.166-9.287
			c0.208,0.016,0.352,0.061,0.511,0.061c2.817,0.453,5.621,1.109,8.405,1.34c3.676,0.26,7-0.82,9.535-3.69
			C78.324,79.069,79.459,76.424,80.008,73.479z M60.226,44.285c3.488,1.149,6.977,1.981,9.655,4.456
			c1.805,1.602,2.286,3.666,1.467,5.675c-0.865,2.15-2.629,3.317-5.109,3.295c-3.39-0.007-6.576-1.108-9.825-2.339
			C57.656,51.758,58.902,48.142,60.226,44.285z M63.213,76.209c-3.561,0.36-6.813-0.71-10.125-1.747
			c-0.908-0.301-1.797-0.646-2.803-0.979c1.417-4.141,2.804-8.188,4.223-12.33c4.253,1.402,8.567,2.454,11.952,5.531
			c1.754,1.583,2.43,3.555,1.66,5.898C67.298,74.907,65.568,75.979,63.213,76.209z"/>
	</g>
</g>
</svg>
