<svg xmlns="http://www.w3.org/2000/svg" width="21" height="21" viewBox="-1076.362 586.329 21 21"><circle fill="#DE2910" cx="-1065.862" cy="596.828" r="10"/><path fill="#FFDE00" d="M-1068.184 594.827l-.837-2.574-.836 2.574h-2.708l2.19 1.592-.836 2.574 2.19-1.591 2.19 1.591-.836-2.574 2.19-1.592zM-1062.996 592.689l.464.774.079-.899.88-.202-.831-.353.08-.9-.593.681-.831-.352.465.773-.593.681zM-1060.667 595.066l.127.894.422-.797.89.154-.628-.647.421-.798-.81.398-.628-.649.127.894-.81.397zM-1059.87 598.593l.71-.556-.902.032-.309-.847-.248.867-.902.032.749.504-.248.868.711-.555.748.503zM-1062.414 600.687l.042-.902-.564.704-.844-.317.495.754-.563.704.87-.238.496.754.042-.902.87-.238z"/></svg>