<?xml version="1.0" encoding="utf-8"?>
<!-- Generator: Adobe Illustrator 16.0.0, SVG Export Plug-In . SVG Version: 6.00 Build 0)  -->
<!DOCTYPE svg PUBLIC "-//W3C//DTD SVG 1.1//EN" "http://www.w3.org/Graphics/SVG/1.1/DTD/svg11.dtd">
<svg version="1.1" id="Layer_1" xmlns="http://www.w3.org/2000/svg" xmlns:xlink="http://www.w3.org/1999/xlink" x="0px" y="0px"
	 width="120px" height="120px" viewBox="0 0 120 120" enable-background="new 0 0 120 120" xml:space="preserve">
<g>
	<path fill="#E6E7E8" d="M71.505,12.396H13.983c-3.176,0-5.752,2.577-5.752,5.752v42.183c0,3.176,2.577,5.752,5.752,5.752h57.522
		c3.175,0,5.751-2.576,5.751-5.752V18.148C77.256,14.972,74.68,12.396,71.505,12.396z"/>
	<g>
		<path fill="none" d="M63.828,35.249c-0.223,0.65-0.615,1.711-0.596,1.674c0,0-1.435,3.889-1.805,4.893c0.893,0,3.051,0,3.758,0
			c-0.186-0.873-1.043-5.061-1.043-5.061L63.828,35.249z"/>
		<polygon fill="#05589F" points="37.328,30.522 34.5,48.012 39.021,48.012 41.85,30.522 		"/>
		<path fill="#05589F" d="M50.968,37.536c-1.582-0.8-2.55-1.339-2.55-2.158c0.018-0.744,0.819-1.506,2.605-1.506
			c1.471-0.038,2.55,0.315,3.37,0.669l0.409,0.186l0.615-3.776c-0.893-0.354-2.307-0.746-4.057-0.746
			c-4.466,0-7.611,2.381-7.63,5.787c-0.037,2.512,2.252,3.907,3.963,4.745c1.749,0.855,2.345,1.414,2.345,2.177
			c-0.018,1.171-1.414,1.712-2.715,1.712c-1.808,0-2.773-0.279-4.243-0.931l-0.597-0.278l-0.633,3.926
			c1.061,0.483,3.016,0.912,5.044,0.93c4.745,0,7.835-2.344,7.87-5.973C54.783,40.309,53.573,38.783,50.968,37.536z"/>
		<path fill="#05589F" d="M67.009,30.522h-3.497c-1.08,0-1.899,0.316-2.364,1.452L54.43,48.012h4.745c0,0,0.781-2.158,0.949-2.623
			c0.521,0,5.138,0,5.808,0c0.13,0.613,0.538,2.623,0.538,2.623h4.188L67.009,30.522z M61.428,41.815
			c0.37-1.004,1.805-4.893,1.805-4.893c-0.02,0.037,0.373-1.023,0.596-1.674l0.314,1.506c0,0,0.857,4.188,1.043,5.061
			C64.479,41.815,62.32,41.815,61.428,41.815z"/>
		<path fill="#05589F" d="M30.722,30.522l-4.43,11.927l-0.483-2.42l0,0v0.001c-1.062-2.891-3.169-5.446-6.227-7.234l4.031,15.198
			h4.781l7.109-17.473H30.722z"/>
		<path fill="#FAA71C" d="M25.809,40.031v-0.001l-1.581-8.037c-0.261-1.118-1.061-1.434-2.049-1.471h-7.275l-0.074,0.353
			c1.774,0.455,3.362,1.108,4.752,1.921C22.64,34.585,24.747,37.14,25.809,40.031z"/>
	</g>
	<g>
		<path fill="#FFFFFF" d="M106.018,53.917H48.495c-3.175,0-5.751,2.577-5.751,5.752v42.182c0,3.177,2.577,5.753,5.751,5.753h57.522
			c3.176,0,5.752-2.576,5.752-5.753V59.669C111.77,56.494,109.193,53.917,106.018,53.917z"/>
		<g transform="translate(1565.7 -1106.8)">
			<g transform="matrix(3.1437 0 0 3.1437 -4835.7 -1027.6)">
				<g>
					<g transform="matrix(1.25 0 0 -1.25 1103.2 710.77)">
						<path fill="#F6951E" d="M-24.123,2.318V2.48h-0.042l-0.049-0.111l-0.048,0.111h-0.043V2.318h0.03V2.44l0.046-0.106h0.031
							l0.045,0.106V2.318H-24.123z M-24.392,2.318v0.134h0.054v0.027h-0.138V2.452h0.054V2.318H-24.392z"/>
					</g>
					<path fill="#F26122" d="M1067.037,708.745h-4.573v-8.219h4.573V708.745z"/>
					<g transform="matrix(1.25 0 0 -1.25 1064.5 698.59)">
						<path fill="#EA1D25" d="M-1.395-4.836c0,1.334,0.625,2.522,1.597,3.288c-0.711,0.56-1.609,0.894-2.584,0.894
							c-2.31,0-4.181-1.872-4.181-4.182c0-2.309,1.872-4.181,4.181-4.181c0.975,0,1.873,0.334,2.584,0.894
							C-0.77-7.358-1.395-6.17-1.395-4.836"/>
					</g>
					<g transform="matrix(1.25 0 0 -1.25 1103.8 698.59)">
						<path fill="#F69E1F" d="M-24.476-4.836c0-2.309-1.872-4.181-4.181-4.181c-0.975,0-1.873,0.334-2.584,0.894
							c0.973,0.765,1.597,1.953,1.597,3.287c0,1.334-0.624,2.522-1.597,3.288c0.711,0.56,1.609,0.894,2.584,0.894
							C-26.348-0.654-24.476-2.526-24.476-4.836"/>
					</g>
				</g>
				<g transform="matrix(1.25 0 0 -1.25 1102.5 727.74)">
					<path fill="#231F20" d="M-23.713,17.819v-0.027h0.025c0.006,0,0.01,0.001,0.014,0.003c0.004,0.002,0.005,0.006,0.005,0.011
						c0,0.004-0.002,0.008-0.005,0.01c-0.003,0.002-0.008,0.003-0.014,0.003H-23.713z M-23.687,17.838
						c0.013,0,0.023-0.003,0.03-0.009c0.007-0.006,0.011-0.014,0.011-0.024c0-0.008-0.002-0.016-0.008-0.021
						c-0.005-0.005-0.013-0.009-0.024-0.01l0.034-0.039h-0.026l-0.031,0.039h-0.01v-0.039h-0.022v0.103H-23.687z M-23.694,17.7
						c0.012,0,0.023,0.002,0.033,0.007c0.01,0.004,0.019,0.011,0.027,0.018c0.008,0.008,0.014,0.017,0.018,0.028
						c0.004,0.01,0.007,0.021,0.007,0.033s-0.002,0.023-0.007,0.034c-0.004,0.01-0.01,0.02-0.018,0.027
						c-0.007,0.008-0.017,0.013-0.027,0.018c-0.01,0.004-0.022,0.006-0.033,0.006c-0.012,0-0.024-0.002-0.034-0.006
						c-0.011-0.005-0.02-0.011-0.028-0.018c-0.008-0.008-0.014-0.017-0.018-0.027c-0.005-0.011-0.007-0.022-0.007-0.034
						s0.002-0.023,0.007-0.033c0.004-0.011,0.01-0.02,0.018-0.028c0.007-0.007,0.017-0.014,0.028-0.018
						C-23.717,17.703-23.706,17.7-23.694,17.7 M-23.694,17.897c0.016,0,0.03-0.003,0.044-0.009c0.013-0.006,0.025-0.014,0.036-0.024
						c0.01-0.01,0.018-0.022,0.024-0.035s0.009-0.028,0.009-0.043c0-0.015-0.003-0.029-0.009-0.042
						c-0.006-0.013-0.014-0.025-0.024-0.035c-0.01-0.01-0.022-0.018-0.036-0.023c-0.014-0.006-0.028-0.009-0.044-0.009
						c-0.016,0-0.031,0.003-0.044,0.009c-0.014,0.006-0.026,0.014-0.036,0.023c-0.01,0.01-0.018,0.022-0.024,0.035
						c-0.006,0.013-0.009,0.028-0.009,0.042c0,0.015,0.003,0.03,0.009,0.043c0.006,0.013,0.014,0.025,0.024,0.035
						c0.01,0.01,0.022,0.018,0.036,0.024C-23.724,17.894-23.71,17.897-23.694,17.897 M-34.052,18.291
						c0,0.195,0.128,0.356,0.337,0.356c0.2,0,0.334-0.153,0.334-0.356c0-0.202-0.135-0.355-0.334-0.355
						C-33.924,17.936-34.052,18.096-34.052,18.291 M-33.153,18.291v0.555h-0.241v-0.135c-0.077,0.1-0.193,0.163-0.351,0.163
						c-0.312,0-0.555-0.244-0.555-0.583c0-0.339,0.244-0.583,0.555-0.583c0.158,0,0.274,0.062,0.351,0.162v-0.134h0.241V18.291z
						 M-24.995,18.291c0,0.195,0.128,0.356,0.336,0.356c0.2,0,0.335-0.153,0.335-0.356c0-0.202-0.135-0.355-0.335-0.355
						C-24.867,17.936-24.995,18.096-24.995,18.291 M-24.097,18.291v1.001h-0.241v-0.581c-0.077,0.1-0.193,0.163-0.351,0.163
						c-0.311,0-0.556-0.244-0.556-0.583c0-0.339,0.244-0.583,0.556-0.583c0.158,0,0.274,0.062,0.351,0.162v-0.134h0.241V18.291z
						 M-30.156,18.658c0.156,0,0.255-0.097,0.281-0.269h-0.576C-30.426,18.549-30.328,18.658-30.156,18.658 M-30.152,18.874
						c-0.326,0-0.553-0.237-0.553-0.583c0-0.353,0.237-0.583,0.569-0.583c0.167,0,0.321,0.042,0.456,0.155l-0.118,0.179
						c-0.093-0.074-0.212-0.116-0.324-0.116c-0.156,0-0.297,0.072-0.332,0.272h0.824c0.002,0.03,0.005,0.06,0.005,0.092
						C-29.627,18.637-29.841,18.874-30.152,18.874 M-27.237,18.291c0,0.195,0.128,0.356,0.336,0.356c0.2,0,0.335-0.153,0.335-0.356
						c0-0.202-0.135-0.355-0.335-0.355C-27.109,17.936-27.237,18.096-27.237,18.291 M-26.338,18.291v0.555h-0.242v-0.135
						c-0.077,0.1-0.192,0.163-0.35,0.163c-0.311,0-0.555-0.244-0.555-0.583c0-0.339,0.244-0.583,0.555-0.583
						c0.158,0,0.274,0.062,0.35,0.162v-0.134h0.242V18.291z M-28.6,18.291c0-0.336,0.234-0.583,0.592-0.583
						c0.167,0,0.278,0.037,0.399,0.132l-0.116,0.195c-0.09-0.065-0.186-0.1-0.291-0.1c-0.193,0.002-0.334,0.142-0.334,0.355
						c0,0.214,0.142,0.353,0.334,0.356c0.105,0,0.2-0.035,0.291-0.1l0.116,0.195c-0.121,0.096-0.232,0.132-0.399,0.132
						C-28.366,18.874-28.6,18.628-28.6,18.291 M-25.488,18.874c-0.139,0-0.23-0.065-0.292-0.163v0.135h-0.24v-1.11h0.242v0.622
						c0,0.184,0.079,0.286,0.237,0.286c0.049,0,0.1-0.007,0.151-0.028l0.074,0.228C-25.369,18.865-25.439,18.874-25.488,18.874
						 M-31.959,18.758c-0.116,0.077-0.276,0.117-0.453,0.117c-0.281,0-0.463-0.135-0.463-0.356c0-0.181,0.135-0.292,0.383-0.327
						l0.114-0.016c0.132-0.019,0.195-0.053,0.195-0.116c0-0.086-0.088-0.134-0.253-0.134c-0.167,0-0.288,0.053-0.369,0.116
						l-0.114-0.188c0.133-0.098,0.3-0.144,0.481-0.144c0.321,0,0.506,0.151,0.506,0.362c0,0.196-0.146,0.297-0.388,0.332
						l-0.114,0.016c-0.105,0.013-0.188,0.034-0.188,0.109c0,0.081,0.079,0.13,0.211,0.13c0.142,0,0.279-0.053,0.346-0.095
						L-31.959,18.758z M-28.844,18.874c-0.14,0-0.23-0.065-0.292-0.163v0.135h-0.24v-1.11h0.242v0.622
						c0,0.184,0.079,0.286,0.237,0.286c0.049,0,0.1-0.007,0.151-0.028l0.075,0.228C-28.726,18.865-28.795,18.874-28.844,18.874
						 M-30.904,18.846h-0.395v0.337h-0.244v-0.337h-0.225v-0.221h0.225v-0.506c0-0.257,0.1-0.41,0.386-0.41
						c0.105,0,0.225,0.032,0.302,0.085l-0.07,0.207c-0.072-0.042-0.152-0.063-0.214-0.063c-0.121,0-0.16,0.074-0.16,0.185v0.502
						h0.395V18.846z M-34.514,17.736v0.696c0,0.263-0.167,0.439-0.437,0.442c-0.142,0.002-0.288-0.042-0.39-0.198
						c-0.077,0.123-0.198,0.198-0.367,0.198c-0.119,0-0.234-0.035-0.325-0.165v0.137h-0.242v-1.11h0.244v0.615
						c0,0.193,0.107,0.295,0.272,0.295c0.161,0,0.241-0.104,0.241-0.293v-0.618h0.245v0.615c0,0.193,0.111,0.295,0.271,0.295
						c0.165,0,0.244-0.104,0.244-0.293v-0.618H-34.514z"/>
				</g>
			</g>
		</g>
	</g>
</g>
</svg>
