<svg xmlns="http://www.w3.org/2000/svg" width="400" height="400"><g fill="#2E2F2D"><path d="M334.448 330.836c-.513-.588-1.031-1.185-1.552-1.777-1.104-1.262-2.193-2.532-3.319-3.775-.321-.361-.308-.646-.06-1.014.81-1.189 2.192-1.607 3.52-1 .475.221.923.52 1.352.825.854.609 1.696.637 2.558.037.579-.401 1.155-.809 1.739-1.2 1.41-.938 2.267-.874 3.561.232.443.385.91.742 1.378 1.101.854.653 1.75.55 2.647.11.42-.208.824-.451 1.231-.69 1.099-.63 1.896-.542 3.031.335 1.015.785.987.849.1 1.754-1.472 1.482-2.935 2.972-4.403 4.455-.106.104-.203.214-.35.371.408.263.791.515 1.184.755 3.889 2.387 6.563 5.728 7.897 10.096.849 2.775.976 5.597.278 8.419-.835 3.347-2.987 5.545-6.156 6.781a18.046 18.046 0 0 1-6.209 1.234c-1.833.036-3.677.052-5.504-.093-2.29-.183-4.502-.761-6.514-1.933-2.623-1.523-4.215-3.843-4.687-6.791-.774-4.821-.019-9.377 2.89-13.43 1.317-1.836 3.015-3.286 4.937-4.459.129-.079.253-.156.373-.236.026-.015.034-.046.078-.107zm7.423 22.49c.004-.178.016-.307.004-.441-.023-.343.029-.535.467-.594.86-.111 1.676-.392 2.399-.907 1.674-1.188 2.388-4.28.463-5.873-.655-.543-1.47-.897-2.224-1.313-.299-.167-.771-.19-.914-.426-.159-.274-.043-.716-.039-1.082l.041-2.766c.869.289 1.541.729 1.918 1.513.15.303.301.37.615.264.426-.146.875-.225 1.313-.345.535-.152.566-.227.309-.731-.754-1.473-1.924-2.473-3.506-2.934-.514-.148-.682-.372-.609-.875.045-.312.018-.634.021-.955-.824-.013-1.584-.024-2.359-.034-.051.537-.104 1.059-.146 1.52-.667.154-1.285.257-1.88.446-2.837.896-2.992 4.559-1.271 6.105a7.636 7.636 0 0 0 2.715 1.574c.321.107.424.265.408.598-.039.971-.037 1.938-.063 2.908-.008.271-.057.539-.088.832-1.291-.521-2.086-1.505-2.797-2.576-.682.413-1.303.793-1.938 1.181.058.133.09.229.142.313.931 1.469 2.065 2.727 3.775 3.27.659.208.938.542.871 1.202-.003.021.023.051.049.093.75.009 1.51.021 2.324.033z"/><path d="M341.941 349.934c.016-1.212.035-2.398.054-3.682.524.275 1.026.479 1.469.778.601.407.718.936.442 1.616-.302.748-1.092 1.276-1.965 1.288zM339.424 343.121c-.443-.323-.938-.598-1.322-.98-.582-.579-.391-1.631.321-2.041.204-.111.425-.202.644-.276.455-.151.586-.083.591.376.009.939-.021 1.878-.034 2.815-.067.035-.134.069-.2.106z"/></g><g fill="#2E2F2D"><path d="M35.529 178.853c-.289-.165-.558-.277-.773-.451-.627-.513-1.275-.642-1.964-.163-.17.117-.344.293-.412.482-.182.495-.305 1.015-.461 1.551l-4.392-.042c-.142-.511-.299-1.017-.409-1.531-.061-.3-.236-.404-.473-.559-.689-.442-1.286-.302-1.892.146-.238.175-.517.296-.806.454-.973-.995-1.939-1.976-2.89-2.973-.072-.074-.08-.271-.036-.378.095-.229.221-.452.371-.646.423-.543.55-1.067.181-1.72-.175-.313-.316-.527-.679-.615-.481-.114-1.125-.158-1.365-.477-.241-.328-.078-.956-.078-1.453.003-.813.026-1.629.017-2.444-.004-.328.091-.5.428-.53.162-.016.321-.116.481-.122.894-.023 1.297-.589 1.494-1.36a.787.787 0 0 0-.06-.503c-.199-.401-.458-.774-.644-1.179-.061-.136-.043-.401.051-.498.938-.963 1.905-1.902 2.895-2.88.471.276.932.533 1.375.812.254.163.465.15.772.069.763-.198 1.07-.669 1.224-1.401.198-.937.243-.927 1.222-.917l3.402.033c.15.543.311 1.05.415 1.564.065.296.235.404.474.556.69.435 1.286.319 1.892-.143.234-.178.519-.295.8-.449.974.992 1.943 1.973 2.9 2.967.069.074.077.27.032.38a2.258 2.258 0 0 1-.344.605c-.463.563-.561 1.131-.193 1.806.159.285.296.482.617.555.387.086.763.231 1.152.308.296.063.361.217.357.488a177.107 177.107 0 0 0-.033 3.643c-.003.286-.092.434-.381.468-.179.023-.35.127-.53.13-.89.032-1.297.591-1.493 1.363a.783.783 0 0 0 .063.503c.192.403.454.775.643 1.18.058.136.043.4-.052.497-.943.961-1.909 1.898-2.898 2.874zm-5.658-14.148a5.223 5.223 0 0 0-5.275 5.129c-.049 2.872 2.286 5.258 5.175 5.285a5.225 5.225 0 0 0 5.272-5.133c.052-2.871-2.285-5.256-5.172-5.281zM51.078 190.625c-.249-.142-.482-.238-.667-.389-.542-.445-1.101-.555-1.7-.14-.147.101-.296.254-.354.413-.157.435-.266.878-.4 1.345l-3.8-.035c-.12-.446-.26-.881-.351-1.329-.055-.256-.208-.347-.41-.479-.6-.384-1.114-.263-1.637.122-.207.153-.446.257-.698.394-.84-.859-1.678-1.708-2.503-2.571-.061-.065-.063-.234-.027-.328.081-.198.19-.39.322-.56.366-.467.474-.919.156-1.488-.152-.27-.276-.454-.589-.529-.413-.1-.974-.137-1.18-.413-.207-.283-.066-.826-.066-1.256.001-.705.023-1.413.013-2.116-.003-.28.081-.426.371-.458.142-.012.277-.098.415-.104.773-.02 1.122-.507 1.295-1.177a.713.713 0 0 0-.053-.435c-.172-.347-.393-.669-.558-1.02-.05-.117-.036-.347.043-.429.814-.833 1.646-1.645 2.501-2.493.41.241.809.464 1.192.705.221.139.4.127.667.059.662-.17.928-.581 1.059-1.213.173-.812.211-.802 1.059-.793l2.944.029c.127.47.263.907.355 1.354.055.257.205.35.413.482.596.375 1.109.273 1.633-.125.205-.153.451-.254.692-.389.842.858 1.683 1.705 2.509 2.568.061.062.068.232.031.325-.075.187-.171.37-.299.521-.403.491-.487.982-.165 1.566.133.247.251.416.529.478.336.077.661.201 1 .267.252.053.311.187.308.423a174.355 174.355 0 0 0-.032 3.148c0 .249-.074.375-.328.405-.151.02-.305.111-.457.117-.772.025-1.124.51-1.294 1.176a.726.726 0 0 0 .05.434c.173.35.397.671.559 1.024.054.116.041.345-.042.426-.816.834-1.65 1.647-2.506 2.488zm-4.894-12.238a4.521 4.521 0 0 0-4.563 4.439c-.041 2.481 1.979 4.542 4.476 4.567a4.517 4.517 0 0 0 4.563-4.436c.041-2.484-1.977-4.545-4.476-4.57zM49.713 171.015c-.172-.1-.333-.165-.462-.271-.374-.306-.761-.384-1.173-.094a.633.633 0 0 0-.246.287c-.108.295-.184.604-.277.927l-2.625-.024c-.083-.308-.179-.609-.243-.917-.038-.179-.145-.243-.286-.335-.411-.261-.764-.18-1.128.09-.142.104-.311.173-.484.269-.581-.592-1.158-1.179-1.729-1.778-.04-.042-.044-.157-.017-.224.056-.134.13-.267.22-.384.252-.325.329-.641.109-1.03-.105-.187-.19-.315-.407-.365-.286-.069-.674-.094-.814-.288-.143-.194-.046-.572-.046-.868 0-.487.018-.975.009-1.462-.003-.193.056-.294.257-.314.1-.009.191-.068.285-.071.538-.019.776-.354.894-.813a.477.477 0 0 0-.035-.302c-.117-.24-.273-.464-.384-.705-.035-.081-.024-.24.031-.297.56-.576 1.137-1.137 1.729-1.72.282.165.556.318.824.485.151.094.277.089.459.039.455-.116.64-.399.734-.838.119-.561.145-.556.731-.549l2.034.02c.088.328.182.63.246.936.041.178.142.244.286.333.412.259.767.189 1.128-.085.142-.108.309-.178.478-.27.582.592 1.163 1.18 1.733 1.775.041.042.047.161.02.226a1.36 1.36 0 0 1-.205.362c-.276.336-.336.676-.116 1.079.094.172.173.288.367.329.232.052.458.139.689.185.176.038.215.13.212.292-.013.727-.021 1.45-.021 2.178 0 .169-.052.26-.224.279-.11.013-.212.077-.318.083-.536.015-.776.35-.893.811a.47.47 0 0 0 .035.3c.117.241.273.463.386.705.035.081.024.241-.029.298-.563.572-1.141 1.131-1.734 1.716zm-3.381-8.458a3.123 3.123 0 0 0-3.152 3.068c-.03 1.716 1.365 3.142 3.092 3.159a3.124 3.124 0 0 0 3.152-3.068c.032-1.716-1.368-3.143-3.092-3.159z"/></g><path fill="#2E2F2D" d="M56.595 366.384c-.009.685-.032 1.365-.021 2.05a.945.945 0 0 0 .15.506c1.398 2.079 2.053 4.377 1.826 6.863-.348 3.862-2.252 6.78-5.672 8.614-6.253 3.352-14.071-.401-15.406-7.366-.582-3.035.055-5.815 1.826-8.348a1.07 1.07 0 0 0 .179-.553c.033-1.301.038-2.597.068-3.896.057-2.47.949-4.581 2.782-6.247 1.922-1.747 4.205-2.491 6.789-2.168 3.731.468 6.568 3.104 7.329 6.784.12.577.153 1.178.175 1.767.022.667-.013 1.33-.025 1.994zm-3.257 2.042c.01-.098.017-.143.017-.189.019-1.259.043-2.516.055-3.774a5.705 5.705 0 0 0-.059-.933c-.446-2.912-3.062-4.866-6.006-4.494-2.496.313-4.509 2.521-4.579 5.035-.038 1.326-.049 2.655-.068 3.981-.001.059.016.119.026.187.262-.202.491-.396.738-.571 2.006-1.409 4.248-1.447 6.534-1.048 1.276.219 2.366.87 3.342 1.806zm-6.504 9.155c-.007.527-.017 1.053-.023 1.58-.009.641.436 1.132 1.036 1.141.599.009 1.063-.468 1.073-1.106.019-1.053.036-2.104.044-3.159 0-.189.051-.31.22-.426a2.08 2.08 0 0 0 .777-2.354c-.281-.868-1.116-1.488-2.002-1.489a2.175 2.175 0 0 0-2.026 1.454 2.091 2.091 0 0 0 .74 2.368c.145.106.195.212.188.385-.018.531-.018 1.071-.027 1.606z"/><g fill="#2E2F2D"><path d="M360.688 131.375c2.176.043 4.168.294 6.131.794a25.287 25.287 0 0 1 7.525 3.282 25.271 25.271 0 0 1 5.43 4.72c.277.323.582.625.726 1.042.291.822-.043 1.716-.81 2.171-.719.42-1.67.247-2.246-.374-.689-.756-1.362-1.525-2.109-2.225-2.18-2.038-4.691-3.544-7.506-4.544a21.61 21.61 0 0 0-7.936-1.244 21.521 21.521 0 0 0-7.442 1.548c-3.062 1.232-5.702 3.074-7.946 5.489-.188.198-.363.41-.546.611-.521.569-1.162.754-1.886.538-.715-.211-1.141-.715-1.258-1.456-.094-.561.074-1.052.441-1.48a25.14 25.14 0 0 1 4.225-3.917 25.26 25.26 0 0 1 6.035-3.288 25.484 25.484 0 0 1 5.094-1.353 26.556 26.556 0 0 1 4.078-.314z"/><path d="M374.991 146.348c-.013.826-.472 1.496-1.134 1.753-.717.276-1.508.113-2.006-.457-.65-.75-1.332-1.467-2.104-2.094a14.472 14.472 0 0 0-4.864-2.627 14.31 14.31 0 0 0-5.707-.604 14.4 14.4 0 0 0-6.805 2.464 14.953 14.953 0 0 0-2.901 2.597c-.646.742-1.802.812-2.543.167a1.814 1.814 0 0 1-.177-2.551c2.356-2.712 5.254-4.598 8.703-5.616 2.032-.6 4.116-.825 6.235-.69a17.992 17.992 0 0 1 8.718 2.872 17.86 17.86 0 0 1 4.177 3.729c.278.337.403.73.408 1.057z"/><path d="M361.093 145.924c2.905.104 5.687 1.387 7.851 3.955.646.764.551 1.896-.187 2.519-.784.663-1.914.581-2.577-.199-.818-.968-1.802-1.708-2.986-2.174a7.265 7.265 0 0 0-8.161 2.041c-.503.585-1.331.8-2.025.53a1.811 1.811 0 0 1-1.17-1.771c.019-.39.142-.752.397-1.05 1.361-1.596 3.037-2.723 5.041-3.344 1.233-.385 2.249-.521 3.817-.507zM360.501 160.426a3.604 3.604 0 0 1-3.571-3.65 3.619 3.619 0 0 1 3.656-3.592 3.617 3.617 0 0 1 3.579 3.686 3.6 3.6 0 0 1-3.664 3.556z"/></g><path fill="#2E2F2D" d="M48.533 27.479c.1-.315.185-.636.296-.946.637-1.767 1.803-3.043 3.547-3.752.33-.134.48-.3.559-.647.595-2.622 2.577-4.14 5.273-4.036.38.016.595-.087.816-.399 1.919-2.697 5.18-3.916 8.281-3.117 3.24.834 5.519 3.433 5.922 6.78.042.348 0 .707-.003.982.881.322 1.729.531 2.477.933 2.505 1.342 3.727 4.255 2.993 6.959a6.158 6.158 0 0 1-6.035 4.589c-2.19-.018-4.381-.041-6.605-.063.021-2.187.043-4.332.063-6.562.719.009 1.436.015 2.318.023l-4.674-5.041c-1.561 1.615-3.101 3.211-4.752 4.918l2.292.021-.063 6.594c-.274-.001-.545-.004-.816-.007-1.915-.019-3.831-.035-5.747-.055-3.012-.033-5.437-2.048-6.049-5.014-.017-.092-.072-.175-.113-.264l.02-1.896z"/><g fill="#2E2F2D"><path d="M360.338 26.761l-17.606-.169.102-10.641 17.604.169-3.377 5.268zM341.896 42.083c-.004.243-.289.439-.639.436l-.793-.007c-.35-.003-.633-.205-.63-.449l.257-26.677c.003-.244.289-.439.637-.436l.795.007c.351.003.634.205.631.449l-.258 26.677z"/></g><path fill="none" d="M140.508 224.591h162.916v68.378H140.508z"/><path opacity=".1" fill="#FFF" d="M185.983 242.096c19.356 1.479 36.572-10.854 41.994-28.686-5.883 17.068-22.701 28.715-41.544 27.275"/><path opacity=".1" fill="#FFF" d="M186.433 240.686c-22.393-1.709-39.161-21.25-37.449-43.644a40.683 40.683 0 0 1 1.652-8.765 40.744 40.744 0 0 0-2.102 10.174c-1.71 22.395 15.056 41.934 37.449 43.645"/><circle fill="#357BBF" cx="150.409" cy="201.474" r="63.306"/><circle opacity=".2" fill="#383938" cx="150.408" cy="201.474" r="53.567"/><path opacity=".1" fill="#FFF" d="M162.641 253.646c-28.792 6.799-57.644-11.035-64.439-39.828a53.572 53.572 0 0 1-1.427-11.659 53.524 53.524 0 0 0 1.427 13.608c6.796 28.793 35.648 46.623 64.439 39.826 24.886-5.873 41.568-28.229 41.251-52.777-.563 23.776-17.024 45.109-41.251 50.83z"/><path opacity=".2" fill="#383938" d="M138.102 153.237c28.793-6.796 57.645 11.035 64.44 39.825a53.862 53.862 0 0 1 1.396 10.336 53.631 53.631 0 0 0-1.396-14.231c-6.796-28.792-35.647-46.623-64.44-39.827-25.335 5.983-42.175 29.04-41.225 54.107.833-23.524 17.207-44.54 41.225-50.21z"/><g><g fill="#FFF"><path d="M113.849 222.907c1.199-3.479 2.278-6.716 3.477-10.013.12-.302.719-.601 1.079-.601 1.978-.06 3.956 0 5.934 0h38.726c1.018 0 1.499-.299 1.798-1.319 2.158-6.354 4.377-12.708 6.595-19.062.12-.361.179-.66.36-1.199h-46.939a479.003 479.003 0 0 1 3.538-10.131c.12-.24.599-.48.898-.48 1.199-.059 2.338 0 3.536 0 15.887 0 31.772.12 47.719-.059 4.736-.061 9.77 3.595 7.735 10.549-1.499 5.217-3.478 10.25-5.217 15.347-.599 1.738-1.199 3.535-1.798 5.215-2.218 6.115-6.715 9.771-12.888 11.512-.539.178-1.14.178-1.739.178H115.17c-.362.063-.783.063-1.321.063z"/><path d="M143.582 196.409c-1.199 3.357-2.338 6.534-3.537 9.592-.06.24-.539.421-.839.421h-26.677c-.118 0-.24-.061-.479-.181 1.14-3.117 2.219-6.176 3.417-9.232.12-.301.6-.6.9-.6h27.215z"/></g></g><g><circle fill="#F9A037" cx="195.602" cy="113.321" r="63.306"/><path opacity=".2" fill="#383938" d="M247.736 101.015c6.797 28.79-11.032 57.642-39.827 64.442-28.792 6.796-57.645-11.035-64.44-39.83-6.796-28.791 11.034-57.643 39.827-64.439s57.642 11.034 64.44 39.827z"/><path opacity=".1" fill="#FFF" d="M207.833 165.492c-28.79 6.8-57.642-11.032-64.44-39.827a53.808 53.808 0 0 1-1.424-11.661 53.754 53.754 0 0 0 1.424 13.609c6.799 28.794 35.65 46.625 64.44 39.827 24.89-5.872 41.573-28.228 41.255-52.776-.565 23.775-17.025 45.108-41.255 50.828z"/><path opacity=".2" fill="#383938" d="M183.295 65.085c28.792-6.796 57.643 11.034 64.441 39.825a53.764 53.764 0 0 1 1.397 10.336 53.7 53.7 0 0 0-1.397-14.231c-6.799-28.793-35.648-46.623-64.441-39.827-25.336 5.981-42.175 29.038-41.225 54.107.831-23.523 17.209-44.54 41.225-50.21z"/><path fill="#FFF" d="M220.492 114.535c-1.031-2.875-2.965-4.859-5.876-5.825-1.335-.426-2.731-.624-4.203-.915.134-.136.215-.261.31-.333 5.805-4.682 3.146-14.59-2.299-17.037-2.216-1.005-4.531-1.443-6.872-1.498-1.689-.027-3.353.048-5.069.133-.608-2.909-1.388-6.923-2.06-10.146l-6.081 1.267c.609 3.181 1.42 7.078 1.961 9.946l-4.883 1.019c-.595-2.86-1.355-6.767-2.015-9.938l-6.027 1.256c.618 3.233 1.452 7.234 1.995 10.102-4.167.815-8.171 1.648-12.339 2.46.466 2.236.846 4.325 1.3 6.51.884-.187 1.663-.347 2.403-.448.777-.162 1.557-.325 2.295-.425 2.164-.288 3.505.682 3.938 2.759 1.703 8.704 3.415 17.456 5.171 26.146.4 1.921-.28 2.824-2.152 3.212l-4.051.844c.091 2.527.163 4.956.254 7.486 4.118-.803 8.181-1.599 12.35-2.41.651 3.117 1.421 7.078 2.103 10.351l6.081-1.264c-.63-3.285-1.431-7.131-2.016-10.209 1.725-.305 3.294-.579 4.915-.861.651 3.117 1.389 6.921 2.048 10.092l6.081-1.264c-.63-3.283-1.432-7.131-2.006-10.156.197-.095.354-.13.498-.213 2.813-1.073 5.722-1.952 8.388-3.211 3.495-1.702 5.962-4.442 6.765-8.402.505-3.031.147-6.049-.907-9.028zm-33.476-16.24c3.794-.789 7.421-1.869 11.174-1.022 2.494.511 4.023 2.144 4.333 4.411.344 2.422-.651 4.418-2.932 5.707-3.1 1.782-6.592 2.456-10.21 3.046-.77-3.959-1.539-7.92-2.365-12.142zm19.571 27.594c-3.063 2.208-6.599 2.946-10.173 3.745-.988.205-1.984.357-3.077.586-.89-4.532-1.758-8.962-2.646-13.494 4.625-.963 9.123-2.279 13.836-1.253 2.439.522 4.098 1.967 4.629 4.514.477 2.558-.539 4.449-2.569 5.902z"/></g><g><circle fill="#BFBEBE" cx="220.128" cy="275.476" r="63.306"/><path opacity=".2" fill="#383938" d="M272.262 263.171c6.795 28.79-11.035 57.642-39.824 64.438-28.795 6.801-57.646-11.03-64.441-39.826-6.799-28.79 11.034-57.643 39.826-64.438 28.79-6.796 57.642 11.035 64.439 39.826z"/><path opacity=".1" fill="#FFF" d="M232.359 327.646c-28.793 6.797-57.643-11.031-64.439-39.826a53.753 53.753 0 0 1-1.426-11.663 53.575 53.575 0 0 0 1.426 13.612c6.797 28.793 35.646 46.622 64.439 39.824 24.887-5.874 41.568-28.227 41.252-52.775-.56 23.778-17.023 45.11-41.252 50.828z"/><path opacity=".2" fill="#383938" d="M207.82 227.241c28.793-6.798 57.645 11.03 64.44 39.825a53.652 53.652 0 0 1 1.396 10.336 53.487 53.487 0 0 0-1.396-14.231c-6.797-28.796-35.647-46.622-64.44-39.825-25.335 5.98-42.175 29.037-41.224 54.106.834-23.525 17.208-44.541 41.224-50.211z"/><path fill="#FFF" d="M217.645 291.427l4.16-15.669 9.85-3.6 2.453-9.208-.084-.229-9.697 3.543 6.988-26.312h-19.817l-9.136 34.337-7.631 2.785-2.522 9.492 7.624-2.783-5.386 20.235h52.74l3.383-12.594h-32.924"/></g><g><circle fill="#6E76B6" cx="271.133" cy="188.919" r="63.306"/><circle opacity=".1" fill="#383938" cx="271.132" cy="188.92" r="53.567"/><path opacity=".1" fill="#FFF" d="M283.364 241.091c-28.79 6.798-57.644-11.034-64.438-39.827a53.506 53.506 0 0 1-1.427-11.661 53.532 53.532 0 0 0 1.427 13.609c6.795 28.793 35.648 46.624 64.438 39.827 24.887-5.876 41.569-28.229 41.252-52.776-.563 23.774-17.024 45.107-41.252 50.828z"/><path opacity=".2" fill="#383938" d="M258.826 140.683c28.793-6.797 57.645 11.035 64.439 39.828a53.8 53.8 0 0 1 1.396 10.334 53.657 53.657 0 0 0-1.396-14.231c-6.797-28.793-35.646-46.625-64.439-39.828-25.338 5.981-42.178 29.04-41.227 54.107.837-23.523 17.21-44.541 41.227-50.21z"/><g><path fill="#FFF" d="M272.063 206.675v17.313l21.481-30.19z"/><g fill="#FFF"><path d="M292.721 188.208l-20.658-34.358v24.988zM272.063 180.811v21.315l20.496-12z"/></g><g fill="#FFF"><path d="M249.598 188.208l20.657-34.358v24.988zM270.255 180.811v21.315l-20.549-12z"/></g><path fill="#FFF" d="M270.202 206.675v17.313l-21.479-30.19z"/></g></g></svg>