<?xml version="1.0" encoding="utf-8"?>
<!-- Generator: Adobe Illustrator 16.0.0, SVG Export Plug-In . SVG Version: 6.00 Build 0)  -->
<!DOCTYPE svg PUBLIC "-//W3C//DTD SVG 1.1//EN" "http://www.w3.org/Graphics/SVG/1.1/DTD/svg11.dtd">
<svg version="1.1" id="Layer_1" xmlns="http://www.w3.org/2000/svg" xmlns:xlink="http://www.w3.org/1999/xlink" x="0px" y="0px"
	 width="120px" height="120px" viewBox="0 0 120 120" enable-background="new 0 0 120 120" xml:space="preserve">
<g>
	<g>
		<circle fill="#6E76B6" cx="87.438" cy="32.563" r="32.419"/>
		<circle opacity="0.1" fill="#383938" cx="87.438" cy="32.563" r="27.431"/>
		<path opacity="0.1" fill="#FFFFFF" d="M93.701,59.281c-14.743,3.48-29.518-5.652-32.999-20.396c-0.472-2.001-0.706-4-0.73-5.972
			c-0.054,2.293,0.178,4.632,0.73,6.97c3.481,14.745,18.256,23.876,32.999,20.395c12.744-3.008,21.287-14.456,21.126-27.027
			C114.539,45.426,106.107,56.353,93.701,59.281z"/>
		<path opacity="0.2" fill="#383938" d="M81.136,7.86c14.745-3.481,29.519,5.651,32.999,20.396c0.42,1.771,0.648,3.54,0.715,5.292
			c0.085-2.395-0.138-4.842-0.715-7.289c-3.48-14.744-18.254-23.875-32.999-20.395C68.161,8.928,59.538,20.736,60.025,33.574
			C60.451,21.526,68.836,10.764,81.136,7.86z"/>
	</g>
	<g>
		<g>
			<g>
				<polygon fill="#FFFFFF" points="87.914,41.655 87.914,50.522 98.914,35.06 				"/>
			</g>
			<g>
				<polygon fill="#FFFFFF" points="98.494,32.198 87.914,14.604 87.914,27.4 				"/>
				<polygon fill="#FFFFFF" points="87.914,28.41 87.914,39.326 98.41,33.179 				"/>
			</g>
			<g>
				<polygon fill="#FFFFFF" points="76.409,32.198 86.988,14.604 86.988,27.4 				"/>
				<polygon fill="#FFFFFF" points="86.988,28.41 86.988,39.326 76.465,33.179 				"/>
			</g>
			<g>
				<polygon fill="#FFFFFF" points="86.961,41.655 86.961,50.522 75.961,35.06 				"/>
			</g>
		</g>
	</g>
</g>
<g>
	<g>
		<g>
			<circle fill="#357BBF" cx="59.999" cy="87.438" r="32.419"/>
			<circle opacity="0.2" fill="#383938" cx="60" cy="87.438" r="27.431"/>
			<path opacity="0.1" fill="#FFFFFF" d="M66.263,114.155c-14.743,3.48-29.519-5.651-32.999-20.396c-0.472-2-0.705-3.999-0.73-5.971
				c-0.055,2.294,0.177,4.632,0.73,6.97c3.48,14.744,18.255,23.876,32.999,20.395c12.745-3.007,21.288-14.455,21.128-27.028
				C87.102,100.3,78.671,111.226,66.263,114.155z"/>
			<path opacity="0.2" fill="#383938" d="M53.697,62.735c14.744-3.481,29.52,5.649,33,20.395c0.418,1.772,0.649,3.541,0.716,5.294
				c0.085-2.396-0.139-4.843-0.716-7.288c-3.48-14.746-18.256-23.876-33-20.395c-12.974,3.062-21.599,14.871-21.111,27.708
				C33.013,76.402,41.398,65.638,53.697,62.735z"/>
		</g>
		<g>
			<g>
				<path fill="#FFFFFF" d="M41.277,98.413c0.614-1.78,1.167-3.438,1.78-5.128c0.062-0.152,0.369-0.306,0.553-0.306
					c1.014-0.031,2.026,0,3.039,0c6.601,0,13.232,0,19.833,0c0.521,0,0.768-0.155,0.92-0.676c1.104-3.255,2.241-6.508,3.377-9.762
					c0.062-0.186,0.093-0.339,0.186-0.614c-8.014,0-15.995,0-24.038,0c0.614-1.813,1.197-3.499,1.811-5.188
					c0.061-0.124,0.308-0.246,0.459-0.246c0.614-0.03,1.198,0,1.812,0c8.136,0,16.27,0.063,24.438-0.03
					c2.424-0.032,5.003,1.842,3.961,5.401c-0.77,2.671-1.783,5.25-2.673,7.858c-0.307,0.891-0.613,1.813-0.921,2.673
					c-1.136,3.13-3.438,5.004-6.599,5.894c-0.276,0.094-0.585,0.094-0.891,0.094c-8.781,0-17.591,0-26.371,0
					C41.769,98.413,41.553,98.413,41.277,98.413z"/>
				<path fill="#FFFFFF" d="M56.503,84.844c-0.614,1.719-1.197,3.347-1.812,4.912c-0.03,0.122-0.275,0.215-0.43,0.215
					c-4.542,0-9.117,0-13.661,0c-0.061,0-0.123-0.03-0.245-0.093c0.583-1.596,1.136-3.162,1.749-4.727
					c0.063-0.153,0.308-0.308,0.461-0.308C47.14,84.844,51.746,84.844,56.503,84.844z"/>
			</g>
		</g>
	</g>
</g>
<g>
	<g>
		<g>
			<circle fill="#F9A037" cx="32.562" cy="41.178" r="32.419"/>
			<circle opacity="0.2" fill="#383938" cx="32.562" cy="41.178" r="27.432"/>
			<path opacity="0.1" fill="#FFFFFF" d="M38.826,67.896c-14.744,3.481-29.519-5.651-33-20.396c-0.471-2-0.704-4-0.73-5.972
				c-0.053,2.294,0.179,4.633,0.73,6.97c3.481,14.745,18.256,23.876,33,20.396c12.746-3.009,21.289-14.457,21.126-27.028
				C59.663,54.041,51.232,64.967,38.826,67.896z"/>
			<path opacity="0.2" fill="#383938" d="M26.259,16.476c14.746-3.481,29.52,5.651,33.001,20.396
				c0.418,1.771,0.65,3.541,0.717,5.292c0.083-2.396-0.139-4.842-0.717-7.289C55.779,20.131,41.004,11,26.259,14.48
				C13.285,17.544,4.662,29.351,5.147,42.189C5.574,30.143,13.961,19.379,26.259,16.476z"/>
		</g>
		<path fill="#FFFFFF" d="M45.308,41.8c-0.528-1.472-1.518-2.488-3.009-2.983c-0.684-0.219-1.399-0.319-2.152-0.468
			c0.068-0.07,0.11-0.135,0.158-0.171c2.974-2.396,1.611-7.472-1.177-8.725c-1.134-0.514-2.32-0.739-3.519-0.766
			c-0.865-0.016-1.717,0.023-2.596,0.068c-0.311-1.491-0.711-3.546-1.054-5.196l-3.114,0.648c0.312,1.63,0.727,3.625,1.005,5.095
			c-0.879,0.182-1.676,0.349-2.501,0.521c-0.305-1.465-0.694-3.466-1.032-5.09l-3.087,0.643c0.317,1.656,0.743,3.705,1.021,5.174
			c-2.134,0.417-4.184,0.844-6.319,1.261c0.239,1.144,0.434,2.214,0.667,3.333c0.452-0.095,0.851-0.177,1.23-0.229
			c0.399-0.083,0.798-0.167,1.177-0.218c1.107-0.147,1.794,0.348,2.016,1.414c0.872,4.455,1.749,8.937,2.647,13.389
			c0.205,0.984-0.143,1.445-1.102,1.645c-0.691,0.144-1.383,0.289-2.076,0.433c0.047,1.295,0.084,2.537,0.131,3.833
			c2.108-0.411,4.189-0.818,6.324-1.234c0.333,1.597,0.729,3.625,1.076,5.301l3.114-0.648c-0.322-1.681-0.732-3.651-1.033-5.228
			c0.884-0.156,1.688-0.295,2.518-0.44c0.333,1.597,0.709,3.545,1.048,5.169l3.114-0.648c-0.323-1.683-0.733-3.653-1.027-5.201
			c0.102-0.049,0.181-0.065,0.255-0.109c1.44-0.549,2.93-0.997,4.295-1.643c1.79-0.872,3.052-2.274,3.464-4.303
			C46.031,44.87,45.848,43.326,45.308,41.8z M28.166,33.484c1.943-0.406,3.8-0.959,5.722-0.524c1.276,0.26,2.062,1.096,2.219,2.258
			c0.176,1.241-0.334,2.264-1.501,2.923c-1.587,0.913-3.376,1.258-5.229,1.56C28.982,37.674,28.588,35.645,28.166,33.484z
			 M38.188,47.614c-1.568,1.132-3.379,1.508-5.209,1.918c-0.506,0.104-1.017,0.184-1.576,0.3c-0.456-2.321-0.9-4.59-1.355-6.911
			c2.369-0.492,4.671-1.166,7.086-0.641c1.249,0.268,2.097,1.007,2.369,2.312C39.747,45.901,39.227,46.869,38.188,47.614z"/>
	</g>
</g>
</svg>
