<?xml version="1.0" encoding="utf-8"?>
<!-- Generator: Adobe Illustrator 16.0.0, SVG Export Plug-In . SVG Version: 6.00 Build 0)  -->
<!DOCTYPE svg PUBLIC "-//W3C//DTD SVG 1.1//EN" "http://www.w3.org/Graphics/SVG/1.1/DTD/svg11.dtd">
<svg version="1.1" id="Layer_1" xmlns="http://www.w3.org/2000/svg" xmlns:xlink="http://www.w3.org/1999/xlink" x="0px" y="0px"
	 width="120px" height="120px" viewBox="0 0 120 120" enable-background="new 0 0 120 120" xml:space="preserve">
<g>
	<g>
		<g>
			<circle fill="#367CC0" cx="60" cy="60" r="60"/>
			<circle opacity="0.2" fill="#393A39" enable-background="new    " cx="60" cy="60" r="50.77"/>
			<path opacity="0.1" fill="#FFFFFF" enable-background="new    " d="M71.594,109.448C44.305,115.893,16.96,98.989,10.52,71.7
				c-0.875-3.699-1.306-7.401-1.353-11.05c-0.101,4.246,0.331,8.571,1.353,12.898c6.441,27.289,33.787,44.188,61.074,37.746
				c23.585-5.566,39.397-26.754,39.098-50.021C110.156,83.807,94.555,104.025,71.594,109.448z"/>
			<path opacity="0.2" fill="#393A39" enable-background="new    " d="M48.336,14.282c27.289-6.441,54.633,10.458,61.074,37.746
				c0.773,3.278,1.201,6.554,1.323,9.796c0.157-4.434-0.255-8.962-1.323-13.488c-6.44-27.289-33.785-44.188-61.074-37.748
				C24.324,16.259,8.364,38.112,9.264,61.87C10.054,39.575,25.572,19.656,48.336,14.282z"/>
		</g>
		<g>
			<g>
				<path fill="#FFFFFF" d="M25.35,80.314c1.136-3.298,2.159-6.365,3.296-9.49c0.114-0.286,0.681-0.569,1.022-0.569
					c1.875-0.056,3.749,0,5.624,0c12.217,0,24.487,0,36.703,0c0.965,0,1.42-0.283,1.703-1.25c2.046-6.021,4.15-12.044,6.251-18.066
					c0.115-0.342,0.171-0.625,0.341-1.136c-14.827,0-29.6,0-44.486,0c1.137-3.354,2.217-6.478,3.353-9.602
					c0.114-0.228,0.568-0.455,0.852-0.455c1.137-0.056,2.216,0,3.351,0c15.057,0,30.114,0.114,45.226-0.056
					c4.489-0.058,9.261,3.407,7.332,9.998c-1.422,4.945-3.297,9.714-4.944,14.545c-0.568,1.647-1.137,3.351-1.705,4.942
					c-2.103,5.796-6.363,9.262-12.215,10.911c-0.511,0.168-1.079,0.168-1.647,0.168c-16.249,0-32.554,0-48.804,0
					C26.258,80.314,25.86,80.314,25.35,80.314z"/>
				<path fill="#FFFFFF" d="M53.53,55.2c-1.136,3.182-2.216,6.192-3.352,9.091c-0.057,0.228-0.511,0.398-0.795,0.398
					c-8.409,0-16.875,0-25.284,0c-0.111,0-0.227-0.057-0.454-0.171c1.081-2.954,2.103-5.854,3.239-8.75
					c0.114-0.285,0.569-0.568,0.853-0.568C36.2,55.2,44.724,55.2,53.53,55.2z"/>
			</g>
		</g>
	</g>
</g>
</svg>
