<svg xmlns="http://www.w3.org/2000/svg" xmlns:xlink="http://www.w3.org/1999/xlink" width="21" height="21" viewBox="-1076.362 586.329 21 21"><defs><circle id="a" cx="-1065.862" cy="596.828" r="10"/></defs><clipPath id="b"><use xlink:href="#a" overflow="visible"/></clipPath><g clip-path="url(#b)"><circle fill="#00247D" cx="-1065.862" cy="596.828" r="10"/><path fill="#FFF" d="M-1054.557 594.201l4.05-2.012-3.113-4.509-7.741 3.882v-5.998h-8.979v6.018l-7.781-3.902-3.113 4.509 4.09 2.033v5.254l-4.09 2.051 6.305 2.793 4.589-2.279v6.11h8.979v-6.089l4.549 2.258 6.305-2.793-4.05-2.031z"/><path fill="#CF142B" d="M-1054.557 594.164h-8.6v-8.6h-5.387v8.6h-8.6v5.388h8.6v8.599h5.387v-8.599h8.6z"/><path fill="#CF142B" d="M-1077.563 602.665l2.732-1.408 3.982.091-5.816 2.913-.898-1.502M-1056.719 590.221l-4.163 2.115h4.03l2.714-1.357z"/></g></svg>