<?xml version="1.0" encoding="utf-8"?>
<!-- Generator: Adobe Illustrator 16.0.0, SVG Export Plug-In . SVG Version: 6.00 Build 0)  -->
<!DOCTYPE svg PUBLIC "-//W3C//DTD SVG 1.1//EN" "http://www.w3.org/Graphics/SVG/1.1/DTD/svg11.dtd">
<svg version="1.1" id="Layer_1" xmlns="http://www.w3.org/2000/svg" xmlns:xlink="http://www.w3.org/1999/xlink" x="0px" y="0px"
	 width="120px" height="120px" viewBox="0 0 120 120" enable-background="new 0 0 120 120" xml:space="preserve">
<g>
	<g>
		<circle fill="#6F77B6" cx="59.999" cy="60" r="60"/>
		<circle opacity="0.1" fill="#393A39" enable-background="new    " cx="59.998" cy="60.001" r="50.77"/>
		<path opacity="0.1" fill="#FFFFFF" enable-background="new    " d="M71.592,109.447C44.306,115.891,16.959,98.989,10.519,71.7
			C9.644,68,9.213,64.3,9.167,60.648c-0.102,4.244,0.328,8.573,1.352,12.898c6.44,27.289,33.787,44.188,61.073,37.747
			c23.587-5.569,39.398-26.755,39.098-50.02C110.155,83.807,94.554,104.025,71.592,109.447z"/>
		<path opacity="0.2" fill="#393A39" enable-background="new    " d="M48.335,14.283c27.289-6.442,54.634,10.458,61.074,37.748
			c0.772,3.274,1.2,6.552,1.323,9.795c0.157-4.437-0.255-8.964-1.323-13.489c-6.441-27.29-33.785-44.19-61.074-37.748
			C24.32,16.258,8.36,38.113,9.262,61.87C10.054,39.577,25.572,19.656,48.335,14.283z"/>
	</g>
	<g>
		<g>
			<g>
				<polygon fill="#FFFFFF" points="60.88,76.829 60.88,93.238 81.24,64.624 				"/>
			</g>
			<g>
				<polygon fill="#FFFFFF" points="80.46,59.326 60.88,26.763 60.88,50.445 				"/>
				<polygon fill="#FFFFFF" points="60.88,52.315 60.88,72.518 80.306,61.144 				"/>
			</g>
			<g>
				<polygon fill="#FFFFFF" points="39.589,59.326 59.167,26.763 59.167,50.445 				"/>
				<polygon fill="#FFFFFF" points="59.167,52.315 59.167,72.518 39.691,61.144 				"/>
			</g>
			<g>
				<polygon fill="#FFFFFF" points="59.117,76.829 59.117,93.238 38.76,64.624 				"/>
			</g>
		</g>
	</g>
</g>
</svg>
