<?xml version="1.0" encoding="utf-8"?>
<!-- Generator: Adobe Illustrator 16.0.0, SVG Export Plug-In . SVG Version: 6.00 Build 0)  -->
<!DOCTYPE svg PUBLIC "-//W3C//DTD SVG 1.1 Tiny//EN" "http://www.w3.org/Graphics/SVG/1.1/DTD/svg11-tiny.dtd">
<svg version="1.1" baseProfile="tiny" id="Layer_1" xmlns="http://www.w3.org/2000/svg" xmlns:xlink="http://www.w3.org/1999/xlink"
	 x="0px" y="0px" width="120px" height="120px" viewBox="0 0 120 120" overflow="scroll" xml:space="preserve">
<circle fill="#37C903" cx="60" cy="60" r="60"/>
<g>
	<path fill-rule="evenodd" fill="#FFFFFF" d="M87.148,46.541c1.756,2.82,3.064,5.638,3.51,8.754
		c1.434,10.081-2.813,17.622-10.781,23.345c-4.77,3.425-10.189,5.193-16.027,5.807c-4.833,0.507-9.549,0.034-14.218-1.242
		c-0.487-0.133-1.113-0.071-1.587,0.117c-2.56,1.02-5.09,2.109-7.632,3.169c-0.399,0.166-0.811,0.301-1.421,0.525
		c0.367-1.979,0.546-3.843,1.084-5.597c0.552-1.803,0.076-2.813-1.419-3.966c-4.909-3.785-8.229-8.682-9.259-14.903
		c-1.115-6.735,0.609-12.768,4.883-18.041c5.072-6.258,11.823-9.682,19.639-10.981c8.917-1.483,17.344,0.041,25.008,4.964
		c1.994,1.281,3.766,2.91,5.85,4.543c-0.688,0.421-1.031,0.67-1.406,0.855c-9.619,4.785-19.246,9.554-28.858,14.353
		c-1.526,0.763-2.849,0.458-4.129-0.494c-2.149-1.599-4.294-3.204-6.446-4.798c-0.292-0.217-0.618-0.388-1.188-0.74
		c0.114,0.628,0.11,0.946,0.229,1.211c1.831,4.078,3.595,8.189,5.551,12.207c1.384,2.845,1.899,3.071,4.703,1.541
		c4.974-2.713,9.873-5.578,14.685-8.567c4.752-2.952,9.336-6.171,14.041-9.199C83.592,48.351,85.365,47.516,87.148,46.541z"/>
</g>
</svg>
