<?xml version="1.0" encoding="utf-8"?>
<!-- Generator: Adobe Illustrator 16.0.0, SVG Export Plug-In . SVG Version: 6.00 Build 0)  -->
<!DOCTYPE svg PUBLIC "-//W3C//DTD SVG 1.1//EN" "http://www.w3.org/Graphics/SVG/1.1/DTD/svg11.dtd">
<svg version="1.1" id="Layer_1" xmlns="http://www.w3.org/2000/svg" xmlns:xlink="http://www.w3.org/1999/xlink" x="0px" y="0px"
	 width="120px" height="120px" viewBox="0 0 120 120" enable-background="new 0 0 120 120" xml:space="preserve">
<linearGradient id="SVGID_1_" gradientUnits="userSpaceOnUse" x1="237.6602" y1="-299.96" x2="357.6602" y2="-299.96" gradientTransform="matrix(1 0 0 -1 -237.6602 -239.96)">
	<stop  offset="0" style="stop-color:#9D2C2F"/>
	<stop  offset="1" style="stop-color:#84272E"/>
</linearGradient>
<circle fill="url(#SVGID_1_)" cx="60" cy="60" r="60"/>
<g>
	<path fill="#FFFFFF" d="M58.569,67.975v-2.799h-13.8v-3.768h-5.54v3.756H25.389v2.802h13.841v4.665H27.229v2.813h23.624
		c-1.611,1.436-7.515,6.601-8.872,6.601c-1.585,0-6.505-4.719-6.505-4.719h-6.351l8.099,6.563c0,0-3.534,2.014-11.839,2.791v2.783
		c0,0,10.516-0.876,16.593-3.646c0,0,12.255,3.646,16.59,3.646v-2.745c0,0-8.129-1.142-11.532-2.891l9.78-8.371v-2.815H44.764
		v-4.664h13.801h0.005V67.975z M67.89,61.402c0,0-1.229,6.714-6.512,10.297v1.847c0,0,1.473-0.353,3.671-1.657v17.567h5.502V67.482
		c0.928-0.942,1.875-2.028,2.824-3.278v-2.796h-5.489L67.89,61.402z M74.234,72.665h3.741c0,0,3.457,4.554,3.723,7.458h-4.579
		C77.119,80.123,76.589,76.146,74.234,72.665z"/>
	<path fill="#FFFFFF" d="M94.614,66.107h-3.7v-4.705H85.4v4.701H72.406v2.813H85.39v15.79c-0.046,1.016-0.323,2.896-1.846,2.896
		v1.881h3.323c1.932,0,4.029-2.489,4.029-4.672h0.012V68.917h3.699v-2.81H94.614z"/>
	<g>
		<path fill="#FFFFFF" d="M44.774,32.412v-1.896H39.27v1.896H25.395v2.775h33.215v-2.775 M57.778,37.013H26.36v8.443h12.847v9.537
			c-0.01,0.289-0.174,1.726-2.677,1.726v1.843h4.76c1.502,0,3.485-1.644,3.534-3.032V45.454h12.953v-8.446L57.778,37.013
			L57.778,37.013z M52.174,42.685H31.917v-2.86h20.271v2.857L52.174,42.685z"/>
		<path fill="#FFFFFF" d="M49.447,47.374h5.519c0,0,0.752,8.168,3.65,10.317h-2.195c0,0-3.438-2.443-4.857-4.888
			c-1.423-2.447-2.111-5.429-2.111-5.429H49.447z M34.558,47.374h-5.515c0,0-0.755,8.168-3.647,10.317h2.192
			c0.654,0,3.438-2.443,4.855-4.888C33.866,50.356,34.558,47.374,34.558,47.374z"/>
		<g>
			<path fill="#FFFFFF" d="M70.584,47.374h-5.523c0,0-0.742,8.168-3.637,10.317h2.196c0.658,0,3.432-2.443,4.854-4.888
				C69.894,50.356,70.584,47.374,70.584,47.374z M85.451,47.374h5.519c0,0,0.748,8.168,3.646,10.317h-2.194
				c0,0-3.438-2.443-4.854-4.888C86.144,50.356,85.451,47.374,85.451,47.374z"/>
			<path fill="#FFFFFF" d="M94.614,35.182v-2.814H73.492l0.89-1.852h-4.668l-0.915,1.852h-7.381v2.811h5.994l-5.058,10.275h12.871
				v9.457c0,0.106-0.06,1.726-2.761,1.726v1.927h5.156c1.484,0,3.17-1.085,3.188-3.032h0.006V45.454h12.913v-2.772H80.814v-5.62
				h-5.583v5.631h-6.684l3.601-7.506h22.467L94.614,35.182L94.614,35.182z"/>
		</g>
	</g>
</g>
</svg>
