<?xml version="1.0" encoding="utf-8"?>
<!-- Generator: Adobe Illustrator 16.0.0, SVG Export Plug-In . SVG Version: 6.00 Build 0)  -->
<!DOCTYPE svg PUBLIC "-//W3C//DTD SVG 1.1//EN" "http://www.w3.org/Graphics/SVG/1.1/DTD/svg11.dtd">
<svg version="1.1" id="Layer_1" xmlns="http://www.w3.org/2000/svg" xmlns:xlink="http://www.w3.org/1999/xlink" x="0px" y="0px"
	 width="120px" height="120px" viewBox="0 0 120 120" enable-background="new 0 0 120 120" xml:space="preserve">
<circle fill="#FF430A" cx="60" cy="60" r="60"/>
<g>
	<g>
		<g>
			<path fill="#FFFFFF" d="M21.994,35.11c3.086-1.501,6.167-3.012,9.258-4.503c6.551-3.163,13.098-6.336,19.676-9.44
				c0.652-0.308,1.661-0.467,2.262-0.182c9.638,4.576,19.237,9.236,28.842,13.88c0.173,0.084,0.317,0.224,0.751,0.533
				c-20.402,0-40.513,0-60.625,0C22.104,35.302,22.049,35.206,21.994,35.11z"/>
			<path fill="#FFFFFF" d="M22.197,41.512c0-1.387,0-2.547,0-3.844c20.046,0,39.997,0,60.079,0c0,1.285,0,2.491,0,3.844
				C62.249,41.512,42.301,41.512,22.197,41.512z"/>
			<path fill="#FFFFFF" d="M25.822,71.982c0-9.535,0-18.941,0-28.484c2.748,0,5.402,0,8.178,0c0,9.508,0,18.908,0,28.484
				C31.335,71.982,28.682,71.982,25.822,71.982z"/>
		</g>
		<path fill="#FFFFFF" d="M40.659,80.014c-7.55,0-15.1,0-22.657,0c0,2.09,0,4.021,0,6.16c8.931,0,17.832,0,26.724,0
			C42.975,84.467,41.417,82.4,40.659,80.014z"/>
		<path fill="#FFFFFF" d="M40.607,74.004c-6.136,0-12.273,0-18.417,0c0,1.311,0,2.475,0,3.811c6.022,0,12.027,0,18.025,0
			C40.109,76.609,40.219,75.339,40.607,74.004z"/>
		<path fill="#FFFFFF" d="M48.884,64.486c0-7.006,0-13.997,0-21.028c-2.756,0-5.377,0-8.136,0c0,9.657,0,19.131,0,28.603
			c0.206,0,0.407,0,0.611,0C43.118,68.367,46.064,66.109,48.884,64.486z"/>
		<path fill="#FFFFFF" d="M57.77,59.51c0,0,2.324-1.934,6.042-3.55c0-4.158,0-8.305,0-12.454c-2.808,0-5.469,0-8.179,0
			c0,4.551,0,9.069,0,13.579L57.77,59.51z"/>
		<path fill="#FFFFFF" d="M74.359,53.819c1.595,0.055,3.043,0.231,4.357,0.498c0-3.604,0-7.209,0-10.831c-2.718,0-5.328,0-8.132,0
			c0,3.529,0,7.037,0,10.537C71.794,53.855,73.055,53.774,74.359,53.819z"/>
	</g>
	<g>
		<g>
			<path fill="#FFFFFF" d="M77.27,85.846h-2.612v4.07h-4.472v-4.07h-4.883v-2.811h4.883v-2.426h-4.883v-2.808h4l-3.309-6.179
				L57.61,75.7c-0.147,0.843-0.238,1.707-0.238,2.593c0,8.307,6.731,15.037,15.038,15.037c3.089,0,5.959-0.934,8.346-2.531
				l-5.699-3.878L77.27,85.846z"/>
			<path fill="#FFFFFF" d="M72.409,63.255c-3.03,0-5.845,0.903-8.206,2.444l3.302,2.244h1.229l0.521,1.19l0.772,0.529L69.58,69.88
				l3.016,6.899h0.057c0.121-0.332,0.316-0.807,0.578-1.43l3.199-7.406h4.465l-5.437,9.857h3.918v2.809h-4.722v2.425h4.722v1.784
				l7.81-3.797c0.162-0.888,0.26-1.793,0.26-2.729C87.445,69.986,80.716,63.255,72.409,63.255z"/>
		</g>
		<g>
			<path fill="#FFFFFF" d="M72.46,59.871c10.175,0,18.418,8.25,18.418,18.422c0,1.367-0.159,2.693-0.44,3.977
				c0.853-0.295,1.791-0.729,2.699-1.289c0.114-0.881,0.194-1.774,0.194-2.688c0-11.523-9.343-20.871-20.871-20.871
				c-5.062,0-9.702,1.805-13.316,4.803l2.137,1.455C64.383,61.301,68.249,59.871,72.46,59.871z"/>
			<path fill="#FFFFFF" d="M83.742,92.831c-3.118,2.423-7.024,3.882-11.282,3.882c-10.174,0-18.419-8.248-18.419-18.42
				c0-1.335,0.15-2.634,0.419-3.889c-0.865,0.318-1.8,0.767-2.699,1.342c-0.103,0.837-0.172,1.686-0.172,2.547
				c0,11.523,9.345,20.87,20.871,20.87c5.106,0,9.78-1.839,13.408-4.886L83.742,92.831z"/>
		</g>
		<path fill="#FFFFFF" d="M51.23,86.736c0,0-5.449-5.039-3.133-8.614c2.314-3.574,7.762-5.445,9.363-5.069v1.838l10.995-5.346
			l-11.711-7.969v3.984c0,0-7.424,0.61-11.542,5.821C41.083,76.591,43.094,82.992,51.23,86.736z"/>
		<path fill="#FFFFFF" d="M93.895,69.766c0,0,5.448,5.039,3.135,8.612c-2.316,3.575-7.764,5.446-9.362,5.072v-1.837L76.67,86.958
			l11.712,7.964v-3.982c0,0,7.423-0.61,11.539-5.821C104.041,79.91,102.029,73.509,93.895,69.766z"/>
	</g>
</g>
</svg>
