<?xml version="1.0" encoding="utf-8"?>
<!-- Generator: Adobe Illustrator 16.0.0, SVG Export Plug-In . SVG Version: 6.00 Build 0)  -->
<!DOCTYPE svg PUBLIC "-//W3C//DTD SVG 1.1//EN" "http://www.w3.org/Graphics/SVG/1.1/DTD/svg11.dtd">
<svg version="1.1" id="Layer_1" xmlns="http://www.w3.org/2000/svg" xmlns:xlink="http://www.w3.org/1999/xlink" x="0px" y="0px"
	 width="120px" height="120px" viewBox="0 0 120 120" enable-background="new 0 0 120 120" xml:space="preserve">
<g>
	<g>
		<circle fill="#D1D3D4" cx="60" cy="60" r="59.986"/>
		<circle opacity="0.2" fill="#383938" cx="60" cy="60" r="50.758"/>
		<path opacity="0.1" fill="#FFFFFF" d="M71.59,109.435c-27.281,6.441-54.62-10.455-61.06-37.737
			c-0.874-3.701-1.305-7.4-1.352-11.05c-0.102,4.244,0.33,8.57,1.352,12.896c6.44,27.283,33.779,44.18,61.06,37.738
			c23.582-5.565,39.389-26.748,39.09-50.01C110.146,83.8,94.547,104.016,71.59,109.435z"/>
		<path opacity="0.2" fill="#383938" d="M48.338,14.292c27.283-6.439,54.621,10.457,61.062,37.737
			c0.773,3.278,1.199,6.552,1.322,9.794c0.158-4.434-0.256-8.959-1.322-13.485C102.959,21.057,75.621,4.16,48.338,10.6
			C24.332,16.269,8.374,38.117,9.275,61.87C10.065,39.579,25.581,19.665,48.338,14.292z"/>
	</g>
</g>
<g>
	<polygon fill="#FFFFFF" points="87.656,78.424 56.453,78.424 60.395,63.575 69.73,60.163 72.055,51.437 71.975,51.219 
		62.783,54.576 69.408,29.64 50.625,29.64 41.967,62.183 34.732,64.823 32.344,73.819 39.57,71.182 34.465,90.36 84.449,90.36 	"/>
</g>
</svg>
