<?xml version="1.0" encoding="utf-8"?>
<!-- Generator: Adobe Illustrator 16.0.0, SVG Export Plug-In . SVG Version: 6.00 Build 0)  -->
<!DOCTYPE svg PUBLIC "-//W3C//DTD SVG 1.1//EN" "http://www.w3.org/Graphics/SVG/1.1/DTD/svg11.dtd">
<svg version="1.1" id="Layer_1" xmlns="http://www.w3.org/2000/svg" xmlns:xlink="http://www.w3.org/1999/xlink" x="0px" y="0px"
	 width="120px" height="120px" viewBox="0 0 120 120" enable-background="new 0 0 120 120" xml:space="preserve">
<circle fill="#F1F2F2" cx="60" cy="60" r="60"/>
<g transform="translate(1565.7 -1106.8)">
	<g transform="matrix(3.1437 0 0 3.1437 -4835.7 -1027.6)">
		<g transform="matrix(1.25 0 0 -1.25 1102.5 727.74)">
			<path fill="#231F20" d="M-24.41,15.733V15.69h0.04c0.009,0,0.016,0.002,0.022,0.005c0.005,0.003,0.008,0.009,0.008,0.016
				c0,0.007-0.003,0.012-0.008,0.016c-0.005,0.004-0.013,0.005-0.022,0.005H-24.41z M-24.37,15.763c0.02,0,0.036-0.005,0.047-0.014
				c0.011-0.009,0.017-0.022,0.017-0.037c0-0.013-0.004-0.024-0.013-0.033c-0.009-0.008-0.021-0.014-0.038-0.016l0.053-0.061h-0.041
				l-0.049,0.06h-0.016v-0.06h-0.034v0.161H-24.37z M-24.38,15.547c0.019,0,0.036,0.004,0.052,0.011
				c0.017,0.007,0.031,0.017,0.043,0.029c0.012,0.012,0.022,0.026,0.029,0.043c0.006,0.016,0.01,0.034,0.01,0.053
				s-0.004,0.036-0.01,0.053c-0.007,0.016-0.017,0.031-0.029,0.043c-0.012,0.012-0.026,0.022-0.043,0.029
				c-0.016,0.007-0.033,0.01-0.052,0.01c-0.019,0-0.037-0.003-0.053-0.01c-0.017-0.007-0.032-0.016-0.043-0.029
				c-0.012-0.012-0.022-0.027-0.029-0.043c-0.007-0.017-0.01-0.034-0.01-0.053s0.003-0.037,0.01-0.053
				c0.007-0.017,0.016-0.031,0.029-0.043c0.012-0.012,0.027-0.022,0.043-0.029C-24.417,15.551-24.399,15.547-24.38,15.547
				 M-24.38,15.855c0.024,0,0.047-0.005,0.068-0.014c0.022-0.009,0.04-0.021,0.056-0.037c0.016-0.016,0.029-0.034,0.038-0.056
				c0.009-0.021,0.014-0.043,0.014-0.067c0-0.024-0.005-0.046-0.014-0.067c-0.009-0.021-0.022-0.04-0.038-0.055
				c-0.016-0.015-0.035-0.028-0.056-0.037c-0.022-0.009-0.044-0.014-0.068-0.014c-0.025,0-0.048,0.005-0.07,0.014
				c-0.022,0.009-0.041,0.022-0.056,0.037c-0.016,0.016-0.029,0.035-0.037,0.055c-0.01,0.021-0.014,0.043-0.014,0.067
				c0,0.024,0.004,0.046,0.014,0.067c0.009,0.022,0.021,0.04,0.037,0.056c0.016,0.015,0.035,0.028,0.056,0.037
				C-24.428,15.851-24.406,15.855-24.38,15.855 M-40.637,16.474c0,0.306,0.201,0.558,0.529,0.558c0.313,0,0.525-0.241,0.525-0.558
				s-0.212-0.558-0.525-0.558C-40.436,15.916-40.637,16.168-40.637,16.474 M-39.226,16.474v0.871h-0.379v-0.211
				c-0.12,0.157-0.303,0.255-0.55,0.255c-0.489,0-0.872-0.383-0.872-0.915c0-0.533,0.383-0.915,0.872-0.915
				c0.248,0,0.43,0.099,0.55,0.256v-0.212h0.379V16.474z M-26.423,16.474c0,0.306,0.201,0.558,0.528,0.558
				c0.314,0,0.525-0.241,0.525-0.558s-0.211-0.558-0.525-0.558C-26.223,15.916-26.423,16.168-26.423,16.474 M-25.012,16.474v1.571
				h-0.379v-0.911c-0.12,0.157-0.302,0.255-0.55,0.255c-0.489,0-0.872-0.383-0.872-0.915c0-0.533,0.383-0.915,0.872-0.915
				c0.248,0,0.43,0.099,0.55,0.256v-0.212h0.379V16.474z M-34.523,17.05c0.244,0,0.401-0.153,0.441-0.422h-0.904
				C-34.946,16.879-34.793,17.05-34.523,17.05 M-34.516,17.389c-0.511,0-0.868-0.372-0.868-0.915c0-0.554,0.372-0.915,0.893-0.915
				c0.262,0,0.503,0.066,0.714,0.245l-0.185,0.281c-0.146-0.117-0.332-0.182-0.507-0.182c-0.244,0-0.466,0.113-0.521,0.426h1.294
				c0.004,0.047,0.008,0.095,0.008,0.146C-33.692,17.017-34.027,17.389-34.516,17.389 M-29.941,16.474
				c0,0.306,0.201,0.558,0.529,0.558c0.313,0,0.525-0.241,0.525-0.558s-0.211-0.558-0.525-0.558
				C-29.74,15.916-29.941,16.168-29.941,16.474 M-28.53,16.474v0.871h-0.379v-0.211c-0.121,0.157-0.302,0.255-0.55,0.255
				c-0.489,0-0.872-0.383-0.872-0.915c0-0.533,0.383-0.915,0.872-0.915c0.248,0,0.429,0.099,0.55,0.256v-0.212h0.379V16.474z
				 M-32.081,16.474c0-0.529,0.368-0.915,0.93-0.915c0.262,0,0.437,0.059,0.627,0.208l-0.182,0.306
				c-0.142-0.102-0.292-0.157-0.456-0.157c-0.303,0.004-0.525,0.222-0.525,0.558c0,0.335,0.222,0.554,0.525,0.558
				c0.164,0,0.314-0.055,0.456-0.157l0.182,0.306c-0.189,0.149-0.365,0.208-0.627,0.208C-31.713,17.389-32.081,17.002-32.081,16.474
				 M-27.196,17.389c-0.219,0-0.361-0.102-0.46-0.255v0.211h-0.376v-1.742h0.379v0.977c0,0.289,0.124,0.449,0.372,0.449
				c0.077,0,0.157-0.011,0.237-0.044l0.117,0.357C-27.01,17.374-27.119,17.389-27.196,17.389 M-37.352,17.206
				c-0.182,0.12-0.434,0.182-0.71,0.182c-0.441,0-0.726-0.211-0.726-0.558c0-0.284,0.212-0.46,0.601-0.514l0.179-0.025
				c0.208-0.03,0.306-0.084,0.306-0.183c0-0.135-0.139-0.212-0.397-0.212c-0.262,0-0.452,0.084-0.579,0.183l-0.179-0.295
				c0.208-0.153,0.47-0.226,0.754-0.226c0.503,0,0.795,0.237,0.795,0.569c0,0.306-0.23,0.466-0.609,0.521l-0.179,0.026
				c-0.164,0.021-0.295,0.054-0.295,0.17c0,0.128,0.124,0.204,0.332,0.204c0.222,0,0.438-0.084,0.543-0.149L-37.352,17.206z
				 M-32.464,17.389c-0.219,0-0.361-0.102-0.459-0.255v0.211h-0.375v-1.742h0.379v0.977c0,0.289,0.124,0.449,0.372,0.449
				c0.077,0,0.157-0.011,0.237-0.044l0.117,0.357C-32.277,17.374-32.387,17.389-32.464,17.389 M-35.697,17.345h-0.62v0.529h-0.383
				v-0.529h-0.353v-0.346h0.353v-0.795c0-0.404,0.157-0.645,0.605-0.645c0.165,0,0.354,0.051,0.474,0.135l-0.109,0.325
				c-0.113-0.066-0.237-0.098-0.336-0.098c-0.189,0-0.251,0.117-0.251,0.292v0.788h0.62V17.345z M-41.362,15.603v1.093
				c0,0.412-0.263,0.689-0.686,0.693c-0.222,0.004-0.452-0.065-0.612-0.31c-0.12,0.193-0.31,0.31-0.576,0.31
				c-0.186,0-0.368-0.054-0.51-0.259v0.215h-0.379v-1.742h0.382v0.966c0,0.303,0.168,0.463,0.427,0.463
				c0.252,0,0.379-0.164,0.379-0.459v-0.97h0.383v0.966c0,0.303,0.175,0.463,0.426,0.463c0.259,0,0.383-0.164,0.383-0.459v-0.97
				H-41.362z"/>
		</g>
		<g transform="matrix(1.25 0 0 -1.25 1103.2 710.77)">
			<path fill="#F6951E" d="M-24.736,7.821v0.255h-0.067l-0.077-0.175l-0.076,0.175h-0.067V7.821h0.047v0.192l0.072-0.166h0.049
				l0.072,0.167V7.821H-24.736z M-25.157,7.821v0.211h0.085v0.043h-0.217V8.033h0.085V7.821H-25.157z"/>
		</g>
		<path fill="#F26122" d="M1062.85,702.362h-7.177v-12.899h7.177V702.362z"/>
		<g transform="matrix(1.25 0 0 -1.25 1064.5 698.59)">
			<path fill="#EA1D25" d="M-6.694,2.143c0,2.093,0.98,3.958,2.506,5.16c-1.116,0.879-2.525,1.403-4.055,1.403
				c-3.624,0-6.562-2.938-6.562-6.563c0-3.624,2.938-6.563,6.562-6.563c1.531,0,2.939,0.524,4.055,1.403
				C-5.714-1.815-6.694,0.05-6.694,2.143"/>
		</g>
		<g transform="matrix(1.25 0 0 -1.25 1103.8 698.59)">
			<path fill="#F69E1F" d="M-25.016,2.143c0-3.624-2.938-6.563-6.562-6.563c-1.531,0-2.94,0.524-4.056,1.403
				c1.526,1.202,2.507,3.066,2.507,5.16s-0.98,3.958-2.507,5.16c1.116,0.879,2.525,1.403,4.056,1.403
				C-27.954,8.706-25.016,5.768-25.016,2.143"/>
		</g>
	</g>
</g>
</svg>
