<?xml version="1.0" encoding="utf-8"?>
<!-- Generator: Adobe Illustrator 16.0.0, SVG Export Plug-In . SVG Version: 6.00 Build 0)  -->
<!DOCTYPE svg PUBLIC "-//W3C//DTD SVG 1.1//EN" "http://www.w3.org/Graphics/SVG/1.1/DTD/svg11.dtd">
<svg version="1.1" id="Layer_1" xmlns="http://www.w3.org/2000/svg" xmlns:xlink="http://www.w3.org/1999/xlink" x="0px" y="0px"
	 width="120px" height="120px" viewBox="0 0 120 120" enable-background="new 0 0 120 120" xml:space="preserve">
<g>
	<path fill="#000307" d="M60,120c0.777,0,1.548-0.029,2.317-0.059h-4.635C58.453,119.971,59.223,120,60,120z"/>
	<path fill="#000307" d="M60,0c-0.777,0-1.547,0.029-2.317,0.059h4.635C61.548,0.029,60.777,0,60,0z"/>
	<path fill="#16BFD6" d="M95.186,103.232H84.688H74.18v-28.64L49.441,59.8H0.005H0V60c0,8.858,1.935,17.26,5.381,24.828
		c0.447-0.442,1.112-0.717,1.958-0.717h53.486c1.294,0,2.593,0.967,2.593,2.607v1.294l-0.327-0.01c0,1.304-0.972,2.603-2.593,2.603
		H8.395c1.343,2.26,2.834,4.419,4.453,6.475h47.977c1.294,0,2.593,0.977,2.593,2.607v1.299h-0.322v-0.01h-0.005
		c0,1.289-0.972,2.598-2.593,2.598h-41.72c10.228,9.679,23.852,15.795,38.905,16.367h4.635c15.229-0.579,28.997-6.832,39.264-16.709
		H95.19H95.186z M63.418,75.049l-0.327-0.01c0,1.294-0.972,2.588-2.593,2.588H7.339c-1.616,0-2.593-0.967-2.593-2.588v-1.621
		c0-1.299,0.977-2.28,2.593-2.28h53.486c1.294,0,2.593,0.981,2.593,2.603V75.049z"/>
	<path fill="#16BFD6" d="M105.693,98.864c1.015-1.191,1.982-2.422,2.902-3.691l-2.902-1.735V98.864z"/>
	<polygon fill="#2AD0D8" points="74.18,71.724 84.688,71.724 95.186,71.724 95.19,71.724 103.588,71.724 92.134,59.8 49.441,59.8 
		74.18,74.593 	"/>
	<path fill="#2AD0D8" d="M38.512,3.979c-7.629,2.928-14.505,7.367-20.267,12.955h32.712L38.512,3.979z"/>
	<path fill="#2AD0D8" d="M105.693,93.438l2.902,1.735c2.57-3.545,4.767-7.377,6.521-11.447l-9.424-9.811V93.438z"/>
	<path fill="#10B0C1" d="M101.755,16.934C91.471,6.96,77.633,0.641,62.317,0.059h-4.635c-6.735,0.256-13.182,1.622-19.17,3.92
		l12.445,12.955H101.755z"/>
	<path fill="#10B0C1" d="M92.134,59.8l11.454,11.924h2.105v2.191l9.424,9.811C118.255,76.447,120,68.429,120,60v-0.2h-0.005H92.134z
		"/>
	<path fill="#073C60" d="M119.994,59.783L13.772,21.752C5.211,32.088,0.053,45.342,0.005,59.8h49.437h42.692h27.861H120v-0.015
		L119.994,59.783z M11.465,54.878c-3.154,0-5.713-2.559-5.713-5.718c0-3.154,2.559-5.713,5.713-5.713s5.713,2.559,5.713,5.713
		C17.178,52.319,14.619,54.878,11.465,54.878z M29.541,54.878c-3.154,0-5.713-2.559-5.713-5.718c0-3.154,2.559-5.713,5.713-5.713
		s5.713,2.559,5.713,5.713C35.254,52.319,32.695,54.878,29.541,54.878z M47.617,54.878c-3.159,0-5.718-2.559-5.718-5.718
		c0-3.154,2.559-5.713,5.718-5.713c3.154,0,5.713,2.559,5.713,5.713C53.33,52.319,50.771,54.878,47.617,54.878z"/>
	<path fill="#00233F" d="M101.755,16.934H50.957H18.245c-1.574,1.526-3.073,3.129-4.473,4.819l106.222,38.031
		C119.935,42.968,112.952,27.792,101.755,16.934z"/>
	<path fill="#073C60" d="M60.825,71.138H7.339c-1.616,0-2.593,0.981-2.593,2.28v1.621c0,1.621,0.977,2.588,2.593,2.588h53.159
		c1.621,0,2.593-1.294,2.593-2.588l0.327,0.01V73.74C63.418,72.119,62.119,71.138,60.825,71.138z"/>
	<path fill="#073C60" d="M63.091,88.003l0.327,0.01v-1.294c0-1.641-1.299-2.607-2.593-2.607H7.339c-0.846,0-1.511,0.274-1.958,0.717
		c0.904,1.985,1.907,3.915,3.014,5.777h52.103C62.119,90.605,63.091,89.307,63.091,88.003z"/>
	<path fill="#073C60" d="M63.091,100.977h0.005v0.01h0.322v-1.299c0-1.631-1.299-2.607-2.593-2.607H12.848
		c1.817,2.308,3.799,4.478,5.93,6.494h41.72C62.119,103.574,63.091,102.266,63.091,100.977z"/>
	<circle fill="#EADAEA" cx="11.465" cy="49.163" r="5.715"/>
	<circle fill="#EADAEA" cx="29.541" cy="49.163" r="5.715"/>
	<path fill="#EADAEA" d="M47.617,43.447c-3.159,0-5.718,2.559-5.718,5.713c0,3.159,2.559,5.718,5.718,5.718
		c3.154,0,5.713-2.559,5.713-5.718C53.33,46.006,50.771,43.447,47.617,43.447z"/>
	<path fill="#DD0228" d="M74.18,71.724v2.869v28.64h10.508V71.724H74.18z M80.508,86.538c-0.381,0.288-0.874,0.425-1.475,0.425
		c-0.566,0-0.986-0.137-1.25-0.435c-0.186-0.205-0.278-0.469-0.278-0.776c0-0.137,0.015-0.278,0.044-0.43l0.645-3.096h0.972
		l-0.635,3.062c-0.015,0.083-0.024,0.156-0.024,0.234c-0.005,0.156,0.039,0.288,0.117,0.386c0.112,0.151,0.298,0.225,0.557,0.225
		c0.303,0,0.537-0.073,0.732-0.22c0.195-0.142,0.317-0.356,0.371-0.625l0.635-3.062h0.972l-0.64,3.105
		C81.143,85.85,80.898,86.26,80.508,86.538z M84.399,84.99l-0.376,1.895h-0.708l0.337-1.719c0.039-0.176,0.029-0.303-0.029-0.391
		s-0.156-0.122-0.303-0.122c-0.186,0-0.332,0.063-0.469,0.171c-0.117,0.107-0.205,0.269-0.244,0.469l-0.313,1.592h-0.713
		l0.566-2.773h0.684l-0.078,0.391l0.098-0.107c0.229-0.244,0.498-0.356,0.811-0.356c0.298,0,0.503,0.083,0.635,0.249
		C84.419,84.458,84.453,84.692,84.399,84.99z"/>
	<path fill="#024381" d="M87.7,86.333c0.21,0,0.381-0.073,0.522-0.22c0.132-0.146,0.225-0.361,0.288-0.659
		c0.005-0.054,0.015-0.093,0.02-0.142c0.005-0.044,0.01-0.093,0.01-0.127c0-0.171-0.044-0.308-0.132-0.4
		c-0.083-0.098-0.215-0.142-0.371-0.142c-0.205,0-0.376,0.083-0.513,0.225c-0.132,0.151-0.234,0.376-0.298,0.679
		c-0.01,0.049-0.02,0.093-0.02,0.132c-0.01,0.039-0.01,0.093-0.01,0.122c0,0.176,0.049,0.308,0.132,0.4
		C87.412,86.289,87.539,86.333,87.7,86.333z"/>
	<path fill="#024381" d="M90.537,90.088h1.23c0.103,0.015,0.156-0.024,0.166-0.117l0.078-0.308h-1.367L90.537,90.088z"/>
	<path fill="#024381" d="M90.732,89.326c0,0,0.225-0.166,0.605-0.166c0.381-0.01,0.82,0,0.82,0l0.103-0.4h-1.372L90.732,89.326z"/>
	<path fill="#024381" d="M95.186,90.034h-0.322l-0.244,0.859c0,0,0.291-0.136,0.566-0.2V90.034z"/>
	<path fill="#024381" d="M84.688,103.232h10.498V92.734h-0.322l0.078-0.264h-1.772l0.171-0.605h0.181l0.864-3.042h-0.186
		l0.186-0.649h0.801v-2.984c-0.12,0.024-0.235,0.06-0.366,0.06H93.75l-0.332,1.616H92.49l0.928-4.482h1.768V71.724H84.688V103.232z
		 M88.711,92.72h-1.484c-0.283,0-0.381-0.156-0.293-0.483l0.283-1.035h-0.601l0.142-0.562h0.615l0.146-0.542h-0.586l0.151-0.557
		h2.427l-0.151,0.562h-0.972l-0.146,0.542h0.942l-0.151,0.566h-0.947l-0.22,0.811c-0.054,0.132,0.015,0.186,0.215,0.176h0.767
		L88.711,92.72z M89.8,88.496l-0.142,0.518H88.34c-0.146,0.229-0.342,0.332-0.566,0.322H87.09l0.151-0.537h0.132
		c0.122,0,0.195-0.039,0.234-0.127l0.347-0.513h0.933l-0.195,0.337H89.8z M92.617,91.113c-0.078,0.273-0.278,0.41-0.596,0.42h-0.42
		v0.591c-0.01,0.093,0.083,0.142,0.254,0.142h0.396l-0.127,0.459h-0.952c-0.264,0.015-0.391-0.112-0.386-0.381l0.054-1.572h0.791
		l-0.015,0.347h0.21c0.107,0,0.156-0.034,0.156-0.103l0.063-0.225h0.664L92.617,91.113z M93.33,88.14l-0.586,2.129
		c-0.049,0.244-0.259,0.366-0.625,0.366h-1.738l-0.41,1.494c-0.029,0.078,0.01,0.117,0.098,0.117h0.342l-0.127,0.469h-0.869
		c-0.332,0-0.474-0.107-0.415-0.313l1.147-4.253h0.811v0.005l-0.039,0.332c0,0,0.459-0.347,0.879-0.347H93.33z M90.015,84.111h0.688
		l-0.078,0.391l0.098-0.107c0.225-0.244,0.503-0.356,0.811-0.356c0.293,0,0.503,0.083,0.635,0.249
		c0.122,0.171,0.161,0.405,0.103,0.703l-0.381,1.895h-0.708l0.342-1.719c0.039-0.176,0.029-0.303-0.029-0.391
		c-0.054-0.083-0.156-0.122-0.303-0.122c-0.181,0-0.337,0.063-0.459,0.171c-0.127,0.107-0.215,0.269-0.244,0.469l-0.322,1.592
		h-0.703L90.015,84.111z M86.475,85.703c0.01-0.073,0.02-0.137,0.034-0.205c0.093-0.449,0.278-0.806,0.576-1.069
		c0.298-0.269,0.649-0.4,1.069-0.4c0.337,0,0.61,0.103,0.811,0.288c0.2,0.195,0.303,0.459,0.303,0.781
		c0,0.059-0.01,0.122-0.01,0.195c-0.01,0.068-0.02,0.137-0.039,0.205c-0.088,0.439-0.278,0.796-0.576,1.055
		c-0.298,0.264-0.645,0.391-1.064,0.391c-0.352,0-0.615-0.098-0.811-0.283s-0.303-0.449-0.303-0.771
		C86.465,85.83,86.465,85.771,86.475,85.703z M85.566,83.096h0.771l-0.146,0.669h-0.767L85.566,83.096z M85.332,84.111h0.757
		l-0.591,2.754h-0.757L85.332,84.111z"/>
	<polygon fill="#024381" points="95.029,91.865 95.186,91.324 95.186,91.24 94.512,91.24 94.336,91.865 	"/>
	<path fill="#024381" d="M95.186,88.891l-0.22,0.753c0,0,0.092-0.033,0.22-0.073V88.891z"/>
	<path fill="#024381" d="M95.186,84.394v-1.216c-0.077-0.01-0.155-0.019-0.254-0.019h-0.747l-0.273,1.313h0.884
		C94.951,84.473,95.075,84.44,95.186,84.394z"/>
	<path fill="#01798A" d="M97.979,85.762c0.142-0.42,0.049-0.82-0.195-0.898s-0.566,0.195-0.698,0.61
		c-0.142,0.42-0.054,0.815,0.19,0.894S97.832,86.172,97.979,85.762z"/>
	<path fill="#01798A" d="M95.376,90.659c0.088-0.337,0.171-0.625,0.171-0.625h-0.361v0.659
		C95.251,90.679,95.317,90.663,95.376,90.659z"/>
	<path fill="#01798A" d="M95.713,89.448c0.083-0.288,0.186-0.625,0.186-0.625h-0.693l-0.02,0.067v0.68
		C95.333,89.525,95.529,89.472,95.713,89.448z"/>
	<polygon fill="#01798A" points="95.21,91.24 95.186,91.24 95.186,91.324 	"/>
	<path fill="#01798A" d="M105.693,73.915v-2.191h-2.105H95.19h-0.005v10.659h0.22c0.386,0,0.679,0.088,0.884,0.264
		c0.205,0.171,0.313,0.42,0.313,0.737v0.01c0,0.063-0.01,0.132-0.01,0.21c-0.01,0.078-0.029,0.146-0.049,0.225
		c-0.083,0.43-0.288,0.771-0.605,1.035c-0.218,0.177-0.477,0.271-0.752,0.326v2.984h0.127l-0.039,0.239c0,0,0.479-0.239,0.82-0.239
		h1.147l-0.186,0.649h-0.181l-0.864,3.042h0.181l-0.171,0.605H95.84l-0.078,0.264h-0.576v10.498h0.005h6.391
		c1.441-1.387,2.814-2.844,4.112-4.368v-5.427V73.915z M96.914,84.404c0.596-0.273,0.908-0.117,1.24,0.146l0.313-0.225l0.762-0.059
		l-0.576,2.612l-0.869-0.024l-0.137-0.146C95.43,87.646,96.113,84.775,96.914,84.404z M98.486,88.574l-0.156,0.547h-0.64
		c-0.249,0.01-0.371-0.088-0.381-0.293l-0.034-0.693h0.874l0.034,0.322c0,0.078,0.049,0.117,0.151,0.117H98.486z M99.678,89.893
		h-0.903l-0.151,0.547h0.898l-0.166,0.576h-1.001l-0.225,0.342h0.493l0.107,0.693c0.015,0.068,0.078,0.098,0.181,0.098h0.151
		l-0.166,0.566h-0.532c-0.278,0.015-0.425-0.078-0.435-0.283l-0.127-0.625l-0.449,0.664c-0.103,0.195-0.269,0.283-0.488,0.269h-0.82
		l0.161-0.562h0.259c0.107,0,0.195-0.049,0.273-0.137l0.693-1.006h-0.898l0.166-0.586h0.977l0.156-0.547h-0.977l0.166-0.596h2.817
		L99.678,89.893z M100.732,87.412c-0.288,0.625-0.566,0.981-0.728,1.152c-0.161,0.166-0.493,0.547-1.274,0.527l0.068-0.483
		c0.664-0.2,1.016-1.118,1.221-1.519l-0.244-2.988h0.518h0.42l0.049,1.865l0.801-1.865h0.811L100.732,87.412z"/>
	<path fill="#01798A" d="M95.342,84.316c0.137-0.107,0.225-0.278,0.273-0.498c0.005-0.044,0.015-0.078,0.02-0.107
		s0.005-0.073,0.005-0.103c0-0.151-0.059-0.278-0.161-0.347c-0.068-0.045-0.172-0.068-0.293-0.084v1.216
		C95.24,84.371,95.298,84.351,95.342,84.316z"/>
	<path fill="#FFFFFF" d="M80.918,82.227l-0.635,3.062c-0.054,0.269-0.176,0.483-0.371,0.625c-0.195,0.146-0.43,0.22-0.732,0.22
		c-0.259,0-0.444-0.073-0.557-0.225c-0.078-0.098-0.122-0.229-0.117-0.386c0-0.078,0.01-0.151,0.024-0.234l0.635-3.062h-0.972
		l-0.645,3.096c-0.029,0.151-0.044,0.293-0.044,0.43c0,0.308,0.093,0.571,0.278,0.776c0.264,0.298,0.684,0.435,1.25,0.435
		c0.601,0,1.094-0.137,1.475-0.425c0.391-0.278,0.635-0.688,0.742-1.206l0.64-3.105H80.918z"/>
	<polygon fill="#FFFFFF" points="86.089,84.111 85.332,84.111 84.741,86.865 85.498,86.865 	"/>
	<path fill="#FFFFFF" d="M87.954,88.159l-0.347,0.513c-0.039,0.088-0.112,0.127-0.234,0.127h-0.132l-0.151,0.537h0.684
		c0.225,0.01,0.42-0.093,0.566-0.322h1.318l0.142-0.518h-1.108l0.195-0.337H87.954z"/>
	<polygon fill="#FFFFFF" points="86.338,83.096 85.566,83.096 85.425,83.765 86.191,83.765 	"/>
	<path fill="#FFFFFF" d="M87.866,92.021l0.22-0.811h0.947l0.151-0.566h-0.942l0.146-0.542h0.972l0.151-0.562h-2.427l-0.151,0.557
		h0.586l-0.146,0.542h-0.615l-0.142,0.562h0.601l-0.283,1.035c-0.088,0.327,0.01,0.483,0.293,0.483h1.484l0.137-0.522h-0.767
		C87.881,92.207,87.813,92.153,87.866,92.021z"/>
	<path fill="#FFFFFF" d="M91.982,91.016c0,0.068-0.049,0.103-0.156,0.103h-0.21l0.015-0.347H90.84l-0.054,1.572
		c-0.005,0.269,0.122,0.396,0.386,0.381h0.952l0.127-0.459h-0.396c-0.171,0-0.264-0.049-0.254-0.142v-0.591h0.42
		c0.317-0.01,0.518-0.146,0.596-0.42l0.093-0.322h-0.664L91.982,91.016z"/>
	<path fill="#FFFFFF" d="M90.918,88.486l0.039-0.332v-0.005h-0.811l-1.147,4.253c-0.059,0.205,0.083,0.313,0.415,0.313h0.869
		l0.127-0.469h-0.342c-0.088,0-0.127-0.039-0.098-0.117l0.41-1.494h1.738c0.366,0,0.576-0.122,0.625-0.366l0.586-2.129h-1.533
		C91.377,88.14,90.918,88.486,90.918,88.486z M91.934,89.971c-0.01,0.093-0.063,0.132-0.166,0.117h-1.23l0.107-0.425h1.367
		L91.934,89.971z M92.158,89.16c0,0-0.439-0.01-0.82,0c-0.381,0-0.605,0.166-0.605,0.166l0.156-0.566h1.372L92.158,89.16z"/>
	<path fill="#FFFFFF" d="M87.578,86.943c0.42,0,0.767-0.127,1.064-0.391c0.298-0.259,0.488-0.615,0.576-1.055
		c0.02-0.068,0.029-0.137,0.039-0.205c0-0.073,0.01-0.137,0.01-0.195c0-0.322-0.103-0.586-0.303-0.781
		c-0.2-0.186-0.474-0.288-0.811-0.288c-0.42,0-0.771,0.132-1.069,0.4c-0.298,0.264-0.483,0.62-0.576,1.069
		c-0.015,0.068-0.024,0.132-0.034,0.205c-0.01,0.068-0.01,0.127-0.01,0.186c0,0.322,0.107,0.586,0.303,0.771
		S87.227,86.943,87.578,86.943z M87.207,85.679c0-0.039,0.01-0.083,0.02-0.132c0.063-0.303,0.166-0.527,0.298-0.679
		c0.137-0.142,0.308-0.225,0.513-0.225c0.156,0,0.288,0.044,0.371,0.142c0.088,0.093,0.132,0.229,0.132,0.4
		c0,0.034-0.005,0.083-0.01,0.127c-0.005,0.049-0.015,0.088-0.02,0.142c-0.063,0.298-0.156,0.513-0.288,0.659
		c-0.142,0.146-0.313,0.22-0.522,0.22c-0.161,0-0.288-0.044-0.371-0.132c-0.083-0.093-0.132-0.225-0.132-0.4
		C87.197,85.771,87.197,85.718,87.207,85.679z"/>
	<path fill="#FFFFFF" d="M83.662,84.038c-0.313,0-0.581,0.112-0.811,0.356l-0.098,0.107l0.078-0.391h-0.684l-0.566,2.773h0.713
		l0.313-1.592c0.039-0.2,0.127-0.361,0.244-0.469c0.137-0.107,0.283-0.171,0.469-0.171c0.146,0,0.244,0.034,0.303,0.122
		s0.068,0.215,0.029,0.391l-0.337,1.719h0.708l0.376-1.895c0.054-0.298,0.02-0.532-0.103-0.703
		C84.165,84.121,83.96,84.038,83.662,84.038z"/>
	<path fill="#FFFFFF" d="M94.199,88.823h0.186l-0.864,3.042H93.34l-0.171,0.605h1.772l-0.078,0.264h0.322h0.576l0.078-0.264h0.181
		l0.171-0.605h-0.181l0.864-3.042h0.181l0.186-0.649h-1.147c-0.342,0-0.82,0.239-0.82,0.239l0.039-0.239h-0.127h-0.801
		L94.199,88.823z M95.186,88.891l0.02-0.067h0.693c0,0-0.103,0.337-0.186,0.625c-0.184,0.023-0.38,0.077-0.527,0.122
		c-0.128,0.04-0.22,0.073-0.22,0.073L95.186,88.891z M94.863,90.034h0.322h0.361c0,0-0.083,0.288-0.171,0.625
		c-0.059,0.004-0.125,0.02-0.19,0.034c-0.275,0.064-0.566,0.2-0.566,0.2L94.863,90.034z M95.186,91.24h0.024l-0.024,0.084
		l-0.156,0.541h-0.693l0.176-0.625H95.186z"/>
	<path fill="#FFFFFF" d="M90.488,85.293c0.029-0.2,0.117-0.361,0.244-0.469c0.122-0.107,0.278-0.171,0.459-0.171
		c0.146,0,0.249,0.039,0.303,0.122c0.059,0.088,0.068,0.215,0.029,0.391l-0.342,1.719h0.708l0.381-1.895
		c0.059-0.298,0.02-0.532-0.103-0.703c-0.132-0.166-0.342-0.249-0.635-0.249c-0.308,0-0.586,0.112-0.811,0.356l-0.098,0.107
		l0.078-0.391h-0.688l-0.552,2.773h0.703L90.488,85.293z"/>
	<path fill="#FFFFFF" d="M92.49,86.865h0.928l0.332-1.616h1.069c0.131,0,0.246-0.035,0.366-0.06
		c0.275-0.055,0.534-0.149,0.752-0.326c0.317-0.264,0.522-0.605,0.605-1.035c0.02-0.078,0.039-0.146,0.049-0.225
		c0-0.078,0.01-0.146,0.01-0.21v-0.01c0-0.317-0.107-0.566-0.313-0.737c-0.205-0.176-0.498-0.264-0.884-0.264h-0.22h-1.768
		L92.49,86.865z M94.185,83.159h0.747c0.099,0,0.177,0.009,0.254,0.019c0.121,0.016,0.225,0.039,0.293,0.084
		c0.103,0.068,0.161,0.195,0.161,0.347c0,0.029,0,0.073-0.005,0.103s-0.015,0.063-0.02,0.107c-0.049,0.22-0.137,0.391-0.273,0.498
		c-0.044,0.034-0.102,0.055-0.156,0.077c-0.11,0.047-0.234,0.079-0.391,0.079h-0.884L94.185,83.159z"/>
	<path fill="#FFFFFF" d="M98.184,88.457l-0.034-0.322h-0.874l0.034,0.693c0.01,0.205,0.132,0.303,0.381,0.293h0.64l0.156-0.547
		h-0.151C98.232,88.574,98.184,88.535,98.184,88.457z"/>
	<path fill="#FFFFFF" d="M96.855,89.902h0.977l-0.156,0.547h-0.977l-0.166,0.586h0.898l-0.693,1.006
		c-0.078,0.088-0.166,0.137-0.273,0.137h-0.259l-0.161,0.562h0.82c0.22,0.015,0.386-0.073,0.488-0.269l0.449-0.664l0.127,0.625
		c0.01,0.205,0.156,0.298,0.435,0.283h0.532l0.166-0.566h-0.151c-0.103,0-0.166-0.029-0.181-0.098l-0.107-0.693H98.13l0.225-0.342
		h1.001l0.166-0.576h-0.898l0.151-0.547h0.903l0.161-0.586h-2.817L96.855,89.902z"/>
	<path fill="#FFFFFF" d="M97.783,86.855l0.869,0.024l0.576-2.612l-0.762,0.059l-0.313,0.225c-0.332-0.264-0.645-0.42-1.24-0.146
		c-0.801,0.371-1.484,3.242,0.732,2.305L97.783,86.855z M97.085,85.474c0.132-0.415,0.454-0.688,0.698-0.61s0.337,0.479,0.195,0.898
		c-0.146,0.41-0.459,0.684-0.703,0.605S96.943,85.894,97.085,85.474z"/>
	<path fill="#FFFFFF" d="M100.762,85.967l-0.049-1.865h-0.42h-0.518l0.244,2.988c-0.205,0.4-0.557,1.318-1.221,1.519l-0.068,0.483
		c0.781,0.02,1.113-0.361,1.274-0.527c0.161-0.171,0.439-0.527,0.728-1.152l1.641-3.311h-0.811L100.762,85.967z"/>
</g>
</svg>
