<?xml version="1.0" encoding="utf-8"?>
<!-- Generator: Adobe Illustrator 16.0.0, SVG Export Plug-In . SVG Version: 6.00 Build 0)  -->
<!DOCTYPE svg PUBLIC "-//W3C//DTD SVG 1.1//EN" "http://www.w3.org/Graphics/SVG/1.1/DTD/svg11.dtd">
<svg version="1.1" id="Layer_1" xmlns="http://www.w3.org/2000/svg" xmlns:xlink="http://www.w3.org/1999/xlink" x="0px" y="0px"
	 width="120px" height="120px" viewBox="-24.5 -24.5 120 120" enable-background="new -24.5 -24.5 120 120" xml:space="preserve">
<circle fill="#E5E4E3" cx="35.5" cy="35.5" r="60"/>
<g transform="matrix(.35277779 0 0 .35277779 -44.0002378 -32.999882)">
	<path fill="#FAAB07" d="M225.359,305.549c-19.858,0-38.088-6.646-49.824-16.582c-5.96,1.783-13.586,4.653-18.393,8.208
		c-4.12,3.039-3.606,6.134-2.862,7.386c3.255,5.5,55.886,3.516,71.079,1.799V305.549z"/>
	<path fill="#FAAB07" d="M225.359,305.549c19.861,0,38.086-6.646,49.826-16.582c5.96,1.783,13.584,4.653,18.395,8.208
		c4.119,3.039,3.599,6.134,2.862,7.386c-3.261,5.5-55.887,3.516-71.083,1.799V305.549z"/>
	<path d="M225.471,186.528c32.798-0.226,59.079-6.57,67.984-9.009c2.123-0.58,3.261-1.624,3.261-1.624
		c0.006-0.298,0.133-5.337,0.133-7.938c0-43.782-20.665-87.777-71.494-87.78c-50.828,0.003-71.497,43.998-71.497,87.78
		c0,2.601,0.126,7.64,0.134,7.938c0,0,0.927,0.977,2.616,1.448c8.223,2.289,35.001,8.951,68.631,9.182h0.233V186.528z"/>
	<path d="M314.591,222.998c-2.035-6.541-4.803-14.17-7.618-21.498c0,0-1.617-0.199-2.436,0.042
		c-25.213,7.325-55.774,11.989-79.066,11.71h-0.233c-23.163,0.274-53.518-4.335-78.645-11.588c-0.962-0.282-2.857-0.163-2.857-0.163
		c-2.815,7.327-5.588,14.957-7.618,21.498c-9.694,31.195-6.554,44.106-4.161,44.399c5.127,0.615,19.973-23.485,19.973-23.485
		c0,24.493,22.114,62.107,72.753,62.448c0.226-0.003,1.118-0.003,1.341,0c50.639-0.34,72.754-37.955,72.754-62.448
		c0,0,14.843,24.1,19.975,23.485C321.146,267.104,324.285,254.193,314.591,222.998"/>
	<path fill="#FFFFFF" d="M207.267,144.865c-6.896,0.31-12.786-7.545-13.157-17.53c-0.372-9.992,4.909-18.345,11.804-18.656
		c6.889-0.309,12.779,7.546,13.149,17.535C219.445,136.205,214.159,144.558,207.267,144.865"/>
	<path fill="#FFFFFF" d="M256.591,127.336c-0.368,9.985-6.253,17.84-13.154,17.53c-6.887-0.311-12.175-8.66-11.795-18.651
		c0.374-9.989,6.267-17.844,13.149-17.534C251.686,108.991,256.971,117.344,256.591,127.336"/>
	<path fill="#FAAB07" d="M268.849,158.968c-1.844-4.082-20.402-8.628-43.369-8.628h-0.249c-22.972,0-41.53,4.547-43.372,8.628
		c-0.083,0.18-0.137,0.372-0.137,0.579c0,0.298,0.101,0.561,0.256,0.788c1.554,2.264,22.159,13.447,43.253,13.447h0.249
		c21.094,0,41.695-11.182,43.248-13.447c0.161-0.223,0.255-0.494,0.255-0.788C268.982,159.339,268.938,159.145,268.849,158.968"/>
	<path d="M215.742,127.483c0.314,3.941-1.848,7.446-4.825,7.831c-2.981,0.383-5.655-2.504-5.97-6.449
		c-0.311-3.947,1.849-7.453,4.822-7.833C212.757,120.645,215.432,123.536,215.742,127.483"/>
	<path d="M234.689,128.8c0.603-1.091,4.756-6.831,13.346-4.741c2.262,0.549,3.302,1.358,3.527,1.672
		c0.324,0.471,0.415,1.139,0.083,2.037c-0.659,1.783-1.999,1.734-2.752,1.387c-0.479-0.224-6.464-4.213-11.975,1.738
		c-0.379,0.408-1.063,0.548-1.702,0.062C234.57,130.472,234.307,129.487,234.689,128.8"/>
	<path fill="#FFFFFF" d="M225.471,211.815h-0.233c-15.844,0.197-35.047-1.902-53.644-5.572c-1.593,9.221-2.555,20.803-1.729,34.622
		c2.082,34.926,22.824,56.881,54.841,57.202h1.301c32.02-0.316,52.759-22.276,54.849-57.202c0.825-13.819-0.141-25.401-1.733-34.63
		C260.525,209.913,241.319,212.011,225.471,211.815"/>
	<path fill="#EB1923" d="M180.359,208.891v34.373c0,0,15.746,3.175,31.517,0.974v-31.704
		C201.887,211.972,191.108,210.71,180.359,208.891"/>
	<path fill="#EB1923" d="M296.716,175.898c0,0-30.627,9.669-71.245,9.945h-0.233c-40.553-0.275-71.144-9.912-71.247-9.945
		L143.734,201.5c25.657,7.732,57.454,12.725,81.504,12.435h0.233c24.042,0.291,55.843-4.703,81.502-12.435L296.716,175.898z"/>
</g>
</svg>
