<?xml version="1.0" encoding="utf-8"?>
<!-- Generator: Adobe Illustrator 16.0.0, SVG Export Plug-In . SVG Version: 6.00 Build 0)  -->
<!DOCTYPE svg PUBLIC "-//W3C//DTD SVG 1.1//EN" "http://www.w3.org/Graphics/SVG/1.1/DTD/svg11.dtd">
<svg version="1.1" id="Layer_1" xmlns="http://www.w3.org/2000/svg" xmlns:xlink="http://www.w3.org/1999/xlink" x="0px" y="0px"
	 width="120px" height="120px" viewBox="0 0 120 120" enable-background="new 0 0 120 120" xml:space="preserve">
<g>
	<path fill="#0459A0" d="M60,0C39.489,0,21.39,10.299,10.569,26h98.861C98.609,10.299,80.511,0,60,0z"/>
	<path fill="#FAA81D" d="M60,120c20.511,0,38.609-10.299,49.431-26H10.569C21.39,109.701,39.488,120,60,120z"/>
	<path fill="#F2F2F2" d="M109.431,26H10.569C3.909,35.666,0,47.374,0,60s3.908,24.335,10.569,34h98.861
		C116.092,84.335,120,72.626,120,60S116.092,35.666,109.431,26z"/>
</g>
<g>
	<polygon fill="#0459A0" points="51.154,45.764 46.535,74.327 53.919,74.327 58.539,45.764 	"/>
	<path fill="#0459A0" d="M73.43,57.219c-2.582-1.307-4.164-2.188-4.164-3.525c0.029-1.215,1.336-2.459,4.256-2.459
		c2.4-0.063,4.164,0.514,5.502,1.092l0.668,0.304l1.004-6.167c-1.459-0.578-3.768-1.218-6.625-1.218
		c-7.293,0-12.43,3.888-12.461,9.451c-0.061,4.102,3.678,6.38,6.473,7.748c2.855,1.396,3.83,2.31,3.83,3.557
		c-0.031,1.912-2.311,2.796-4.434,2.796c-2.953,0-4.529-0.455-6.93-1.521l-0.977-0.454l-1.033,6.411
		c1.732,0.789,4.926,1.489,8.238,1.52c7.748,0,12.795-3.827,12.852-9.756C79.66,61.746,77.686,59.255,73.43,57.219z"/>
	<path fill="#0459A0" d="M99.627,45.764h-5.711c-1.764,0-3.102,0.516-3.859,2.372L79.084,74.327h7.75c0,0,1.275-3.525,1.549-4.284
		c0.85,0,8.391,0,9.484,0c0.215,1.002,0.881,4.284,0.881,4.284h6.84L99.627,45.764z M96.65,64.209c-1.156,0-4.68,0-6.139,0
		c0-0.001,0-0.002,0-0.003l0,0c0.605-1.64,2.947-7.991,2.947-7.991c-0.016,0.033,0.168-0.474,0.398-1.11
		c0.189-0.527,0.41-1.141,0.574-1.622l0.002,0.002c0-0.001,0-0.002,0-0.004l0.512,2.459c0,0,1.4,6.839,1.705,8.265c0,0,0,0-0.002,0
		C96.65,64.207,96.65,64.208,96.65,64.209z"/>
	<path fill="#0459A0" d="M40.366,45.762v0.001l-7.235,19.479l-0.789-3.952v0.004c-1.734-4.722-5.175-8.895-10.17-11.817
		l6.584,24.821h7.809l11.609-28.536H40.366z"/>
	<path fill="#FAA81D" d="M32.342,61.29L29.76,48.167c-0.426-1.826-1.732-2.342-3.346-2.403H14.532l-0.12,0.577
		c2.896,0.743,5.49,1.809,7.76,3.137C27.167,52.397,30.607,56.57,32.342,61.29z"/>
</g>
</svg>
