<?xml version="1.0" encoding="utf-8"?>
<!-- Generator: Adobe Illustrator 16.0.0, SVG Export Plug-In . SVG Version: 6.00 Build 0)  -->
<!DOCTYPE svg PUBLIC "-//W3C//DTD SVG 1.1//EN" "http://www.w3.org/Graphics/SVG/1.1/DTD/svg11.dtd">
<svg version="1.1" id="Layer_1" xmlns="http://www.w3.org/2000/svg" xmlns:xlink="http://www.w3.org/1999/xlink" x="0px" y="0px"
	 width="120px" height="120px" viewBox="-24.5 -24.5 120 120" enable-background="new -24.5 -24.5 120 120" xml:space="preserve">
<circle fill="#2DC100" cx="35.5" cy="35.5" r="60"/>
<g>
	<g>
		<path fill="#FFFFFF" d="M51.524,23.446c-7.633,0.405-14.275,2.718-19.671,7.954c-5.445,5.284-7.936,11.762-7.252,19.783
			c-2.988-0.363-5.7-0.771-8.441-1.001c-0.94-0.081-2.066,0.031-2.864,0.477c-2.653,1.507-5.202,3.197-8.219,5.072
			c0.565-2.506,0.912-4.696,1.546-6.807c0.465-1.535,0.25-2.415-1.18-3.423c-9.17-6.473-13.032-16.162-10.141-26.129
			c2.679-9.231,9.245-14.815,18.175-17.744c12.186-3.982,25.881,0.079,33.302,9.766C49.449,14.886,51.089,18.807,51.524,23.446
			L51.524,23.446z M16.378,20.342c0.069-1.825-1.509-3.469-3.378-3.529c-1.921-0.053-3.506,1.416-3.558,3.311
			c-0.068,1.92,1.398,3.464,3.346,3.507C14.699,23.682,16.306,22.209,16.378,20.342L16.378,20.342z M34.717,16.818
			c-1.886,0.034-3.473,1.643-3.445,3.468c0.039,1.908,1.6,3.384,3.534,3.361c1.928-0.024,3.417-1.525,3.39-3.461
			C38.188,18.28,36.632,16.785,34.717,16.818z"/>
		<path fill="#FFFFFF" d="M68.688,71.061c-2.43-1.077-4.647-2.694-7.013-2.946c-2.352-0.234-4.815,1.118-7.287,1.374
			c-7.503,0.771-14.22-1.318-19.764-6.439c-10.529-9.745-9.017-24.686,3.159-32.673c10.846-7.099,26.73-4.73,34.366,5.114
			c6.66,8.592,5.881,19.996-2.256,27.215c-2.351,2.086-3.212,3.807-1.69,6.56C68.493,69.775,68.522,70.418,68.688,71.061
			L68.688,71.061z M41.158,44.408c1.539,0.002,2.804-1.205,2.863-2.724c0.063-1.608-1.24-2.954-2.846-2.954
			c-1.595-0.011-2.933,1.36-2.876,2.944C38.353,43.178,39.631,44.404,41.158,44.408L41.158,44.408z M58.903,38.726
			c-1.494-0.014-2.764,1.208-2.824,2.704c-0.067,1.627,1.189,2.957,2.788,2.957c1.541,0.003,2.768-1.161,2.819-2.699
			C61.746,40.071,60.493,38.733,58.903,38.726z"/>
	</g>
</g>
</svg>
